<?xml version="1.0" standalone="no"?>
<!DOCTYPE svg PUBLIC "-//W3C//DTD SVG 1.1//EN" "http://www.w3.org/Graphics/SVG/1.1/DTD/svg11.dtd" >
<svg xmlns="http://www.w3.org/2000/svg">
<metadata>
This is a custom SVG webfont generated by Font Squirrel.
Copyright   : Typeface data Copyright  199294 The Monotype Corporation Copyright 1994 Microsoft Corporation All rights reserved
</metadata>
<defs>
<font id="webfontAda1IoSF" horiz-adv-x="1067" >
<font-face units-per-em="2048" ascent="1638" descent="-410" />
<missing-glyph horiz-adv-x="523" />
<glyph unicode=" "  horiz-adv-x="523" />
<glyph unicode="&#x09;" horiz-adv-x="523" />
<glyph unicode="&#xa0;" horiz-adv-x="523" />
<glyph unicode="!" horiz-adv-x="597" d="M464 1395l-42 -971h-250l-44 971h336zM292 317q78 0 127 -50t49 -119q0 -71 -49.5 -120.5t-118.5 -49.5q-70 0 -119.5 49.5t-49.5 119.5q0 72 51 121t110 49z" />
<glyph unicode="&#x22;" horiz-adv-x="981" d="M165 874l-53 273v248h306v-248l-46 -273h-207zM616 874l-53 273v248h306v-248l-46 -273h-207z" />
<glyph unicode="#" horiz-adv-x="1365" d="M77 1017h308l84 383h189l-84 -383h355l82 383h189l-82 -383h170v-189h-206l-63 -303h269v-189h-305l-82 -380h-190l83 380h-359l-78 -380h-191l81 380h-170v189h209l63 303h-272v189zM538 828l-63 -302h356l62 302h-355z" />
<glyph unicode="$" horiz-adv-x="960" d="M383 1482h180v-129q124 -7 251 -75v-305q-133 130 -253 130q-57 0 -105.5 -36t-48.5 -99q0 -47 34 -81q33 -35 152 -88q107 -47 167 -90.5t100.5 -119.5t40.5 -168q0 -142 -84 -258.5t-254 -162.5v-148h-180v131q-127 3 -294 83v314q155 -147 300 -147q81 0 135 48.5 t54 122.5q0 63 -44 103t-154 87q-143 62 -217 150q-75 87 -75 223q0 135 74 228t221 144v143z" />
<glyph unicode="%" horiz-adv-x="1664" d="M1083 1493h188l-666 -1589h-195l540 1282q-77 -44 -142 -44q-59 0 -132 44q26 -66 26 -145q0 -161 -94 -263t-232 -102q-140 0 -232.5 106.5t-92.5 263.5q0 159 92.5 265.5t234.5 106.5q69 0 180 -52q133 -62 228 -62q198 0 297 189zM382 1237q-46 0 -72 -53t-26 -139 q0 -88 25 -139.5t69 -51.5t70 52.5t26 141.5q0 91 -26 140t-66 49zM1274 719q153 0 245.5 -104.5t92.5 -267.5t-92 -266t-232 -103q-142 0 -235 105.5t-93 265.5q0 165 95.5 267.5t218.5 102.5zM1289 541q-50 0 -75 -45.5t-25 -137.5q0 -89 27 -144.5t71 -55.5 q41 0 67.5 50.5t26.5 137.5q0 94 -27 144.5t-65 50.5z" />
<glyph unicode="&#x26;" horiz-adv-x="1109" d="M316 848q-55 146 -55 250q0 126 94 223t262 97q63 0 172 -23v-246q-57 29 -100 29q-49 0 -79.5 -29t-30.5 -76q0 -53 28 -109l182 -360q-1 30 -1 41l1 124v79h277v-25q0 -120 -37 -266t-111 -243l148 -314h-324l-41 84q-115 -106 -253 -106q-167 0 -282 123.5t-115 299.5 q0 248 265 447zM422 620q-54 -88 -54 -169q0 -82 47.5 -138t113.5 -56q27 0 60 14z" />
<glyph unicode="'" horiz-adv-x="491" d="M145 874l-53 273v248h306v-248l-46 -273h-207z" />
<glyph unicode="(" horiz-adv-x="875" d="M515 1395h252q-128 -257 -172.5 -438.5t-44.5 -459.5q0 -233 28 -400t73.5 -281t128.5 -260h-254q-247 439 -247 925q0 274 56 469t180 445z" />
<glyph unicode=")" horiz-adv-x="875" d="M360 -444h-251q127 257 171.5 438.5t44.5 459.5q0 233 -28 400t-73.5 281t-128.5 260h254q247 -439 247 -924q0 -275 -56 -470t-180 -445z" />
<glyph unicode="*" horiz-adv-x="960" d="M414 1395h132v-243l231 75l43 -122l-233 -76l144 -194l-107 -76l-146 194l-146 -194l-105 76l146 194l-232 76l40 122l233 -75v243z" />
<glyph unicode="+" horiz-adv-x="1365" d="M126 774h449v450h215v-450h451v-215h-451v-448h-215v448h-449v215z" />
<glyph unicode="," horiz-adv-x="597" d="M320 -489h-137q84 229 97 389q-144 57 -144 189q0 87 52 136.5t123 49.5q85 0 135 -64.5t50 -165.5q0 -197 -176 -534z" />
<glyph unicode="-" horiz-adv-x="768" d="M121 634h527v-315h-527v315z" />
<glyph unicode="." horiz-adv-x="597" d="M292 296q71 0 116.5 -47t45.5 -112q0 -66 -46 -112.5t-110 -46.5q-63 0 -109 46.5t-46 111.5q0 68 47 114t102 46z" />
<glyph unicode="/" horiz-adv-x="768" d="M510 1425h205l-459 -1585h-202z" />
<glyph unicode="0" horiz-adv-x="1045" d="M520 1357q217 0 347.5 -180.5t130.5 -529.5q0 -306 -130 -487.5t-341 -181.5q-154 0 -269 97t-162.5 258t-47.5 345q0 308 132 493.5t340 185.5zM525 1110q-79 0 -118.5 -107.5t-39.5 -322.5q0 -227 39 -340.5t117 -113.5q77 0 115 110t38 330q0 222 -37.5 333 t-113.5 111z" />
<glyph unicode="1" horiz-adv-x="1045" d="M460 1335h263v-1335h-305v849h-210v230h49q96 0 149.5 53t53.5 158v45z" />
<glyph unicode="2" horiz-adv-x="1045" d="M170 1281q183 76 329 76q189 0 304 -102t115 -265q0 -128 -64 -219.5t-244 -241.5q-129 -107 -161.5 -157t-36.5 -119h528v-253h-834v160q0 193 60 300.5t267 281.5q98 83 127.5 124.5t29.5 86.5q0 59 -46 99.5t-121 40.5q-110 0 -253 -106v294z" />
<glyph unicode="3" horiz-adv-x="1045" d="M142 1279q154 78 320 78q102 0 195.5 -36t153 -114t59.5 -183q0 -102 -56.5 -179.5t-170.5 -130.5q146 -25 219 -104.5t73 -214.5q0 -181 -132 -299t-343 -118q-150 0 -318 71v293q137 -100 271 -100q82 0 139.5 52.5t57.5 127.5q0 72 -56 117.5t-143 45.5h-140v232h92 q80 0 132 36t52 102q0 61 -46 100.5t-116 39.5q-104 0 -243 -103v287z" />
<glyph unicode="4" horiz-adv-x="1045" d="M522 1335h318v-721h156v-231h-156v-383h-318v383h-464v249zM522 953l-221 -339h221v339z" />
<glyph unicode="5" horiz-adv-x="1045" d="M159 1335h696v-252h-380v-243q78 64 157 64q108 0 208.5 -104t100.5 -308q0 -226 -132 -370t-342 -144q-138 0 -308 74v300q149 -110 263 -110q82 0 138 67.5t56 169.5q0 73 -29.5 120.5t-75.5 47.5q-48 0 -78 -62h-274v750z" />
<glyph unicode="6" horiz-adv-x="1045" d="M402 778q53 67 110 100t117 33q140 0 237.5 -131.5t97.5 -313.5q0 -206 -121.5 -347t-298.5 -141q-188 0 -327.5 171.5t-139.5 500.5q0 189 58 350.5t180 259t293 97.5q119 0 270 -58v-300q-133 96 -229 96q-93 0 -164.5 -77.5t-82.5 -239.5zM402 493q12 -121 50 -184.5 t86 -63.5q45 0 76 58t31 146q0 83 -28.5 134t-77.5 51q-35 0 -69 -35t-68 -106z" />
<glyph unicode="7" horiz-adv-x="1045" d="M85 1335h825v-253l-424 -1082h-341l443 1082h-503v253z" />
<glyph unicode="8" horiz-adv-x="1045" d="M310 674q-102 78 -145 149.5t-43 165.5q0 173 120.5 270.5t289.5 97.5q167 0 279.5 -90.5t112.5 -228.5q0 -80 -40.5 -141t-152.5 -150q142 -80 199.5 -165t57.5 -196q0 -183 -137 -295.5t-329 -112.5q-193 0 -328.5 110t-135.5 264q0 190 252 322zM539 815q89 90 89 178 q0 53 -27.5 86.5t-67.5 33.5q-39 0 -67 -35t-28 -87q0 -95 101 -176zM510 603q-148 -94 -148 -216q0 -68 45.5 -115.5t107.5 -47.5t106 48.5t44 124.5q0 128 -155 206z" />
<glyph unicode="9" horiz-adv-x="1045" d="M628 557q-56 -65 -112.5 -98t-113.5 -33q-134 0 -234.5 127t-100.5 314q0 204 121 347t301 143q205 0 335 -184t130 -509q0 -182 -57.5 -338.5t-181 -252t-296.5 -95.5q-123 0 -267 59v295q131 -90 228 -90q105 0 167 79t81 236zM628 841q-10 119 -46.5 185t-85.5 66 q-50 0 -81 -58.5t-31 -144.5q0 -85 29 -136.5t77 -51.5q34 0 68.5 35t69.5 105z" />
<glyph unicode=":" horiz-adv-x="597" d="M292 975q71 0 116.5 -46.5t45.5 -111.5q0 -66 -46 -113t-110 -47q-63 0 -109 46.5t-46 112.5q0 69 47 114t102 45zM292 296q71 0 116.5 -47t45.5 -112q0 -66 -46 -112.5t-110 -46.5q-63 0 -109 46.5t-46 111.5q0 68 47 114t102 46z" />
<glyph unicode=";" horiz-adv-x="597" d="M292 974q72 0 117 -46.5t45 -111.5q0 -66 -45.5 -112.5t-109.5 -46.5t-110 46t-46 112q0 68 47 113.5t102 45.5zM320 -489h-137q85 234 97 390q-144 56 -144 188q0 83 50.5 134.5t124.5 51.5q86 0 135.5 -65t49.5 -163q0 -199 -176 -536z" />
<glyph unicode="&#x3c;" horiz-adv-x="1365" d="M1239 106l-1112 464v194l1112 464v-232l-819 -328l819 -329v-233z" />
<glyph unicode="=" horiz-adv-x="1365" d="M127 1014h1112v-215h-1112v215zM127 536h1112v-215h-1112v215z" />
<glyph unicode="&#x3e;" horiz-adv-x="1365" d="M127 1228l1112 -463v-194l-1112 -465v233l819 328l-819 329v232z" />
<glyph unicode="?" horiz-adv-x="917" d="M64 1338q209 80 352 80q181 0 313 -101t132 -266q0 -92 -41.5 -156.5t-142.5 -155.5q-98 -90 -135.5 -148.5t-37.5 -140.5v-24h-273v56q0 128 36 200t144 175q78 75 102.5 110.5t24.5 72.5q0 57 -52 90t-116 33q-142 0 -306 -109v284zM361 319q77 0 127 -50t50 -120 q0 -71 -50.5 -121t-119.5 -50q-70 0 -119.5 50t-49.5 120q0 72 51 121.5t111 49.5z" />
<glyph unicode="@" horiz-adv-x="1707" d="M1127 958h225l-135 -597q231 122 231 436q0 197 -114.5 311t-355.5 114q-332 0 -520 -220t-188 -565q0 -286 150 -440.5t410 -154.5q305 0 518 166l-18 -242q-234 -125 -490 -125q-349 0 -563.5 212.5t-214.5 597.5q0 443 267.5 705t662.5 262q302 0 478 -166.5 t176 -434.5q0 -217 -101.5 -388t-240.5 -242t-343 -71q-11 95 -16 161q-98 -162 -255 -162q-127 0 -200 93.5t-73 243.5q0 135 64.5 263t172.5 193t213 65q111 0 205 -83zM1025 723q-63 33 -123 33q-101 0 -154.5 -93.5t-53.5 -199.5q0 -120 97 -120q146 0 215 297z" />
<glyph unicode="A" d="M371 1395h323l367 -1395h-354l-49 277h-266l-52 -277h-333zM526 1014l-89 -487h176z" />
<glyph unicode="B" d="M101 1395h496q157 0 254.5 -89.5t97.5 -236.5q0 -111 -58.5 -191t-176.5 -129q165 -24 247 -111t82 -237q0 -184 -133.5 -292.5t-360.5 -108.5h-448v1395zM426 1124v-265h36q73 0 115.5 38t42.5 105q0 61 -33 91.5t-100 30.5h-61zM426 600v-326h105q78 0 129.5 45.5 t51.5 117.5q0 74 -52 118.5t-129 44.5h-105z" />
<glyph unicode="C" horiz-adv-x="875" d="M802 35q-121 -57 -230 -57q-235 0 -374 205t-139 510q0 188 59.5 356t184.5 268.5t286 100.5q99 0 213 -51v-319q-79 78 -170 78q-113 0 -178.5 -114t-65.5 -330q0 -185 65.5 -296.5t173.5 -111.5q79 0 175 75v-314z" />
<glyph unicode="D" horiz-adv-x="1088" d="M101 1395h407q183 0 304 -86t172.5 -245t51.5 -351q0 -323 -145.5 -518t-426.5 -195h-363v1395zM426 1124v-851h23q253 0 253 458q0 177 -54.5 285t-178.5 108h-43z" />
<glyph unicode="E" horiz-adv-x="960" d="M101 1395h795v-281h-470v-256h438v-273h-438v-300h470v-285h-795v1395z" />
<glyph unicode="F" horiz-adv-x="917" d="M101 1395h777v-281h-452v-290h418v-272h-418v-552h-325v1395z" />
<glyph unicode="G" horiz-adv-x="1024" d="M703 105q-48 -63 -103 -95t-117 -32q-118 0 -221.5 92.5t-152.5 264t-49 361.5q0 323 143.5 522.5t387.5 199.5q163 0 294 -82v-309q-124 103 -229 103q-136 0 -203 -121t-67 -330q0 -194 45.5 -308.5t123.5 -114.5q40 0 59.5 39t19.5 117v87h-107v252h410v-751h-158z " />
<glyph unicode="H" horiz-adv-x="1109" d="M101 1395h323v-539h258v539h326v-1395h-326v584h-258v-584h-323v1395z" />
<glyph unicode="I" horiz-adv-x="533" d="M103 1395h328v-1395h-328v1395z" />
<glyph unicode="J" horiz-adv-x="640" d="M197 1395h330v-1046q0 -186 -71 -278.5t-231 -92.5q-87 0 -167 22v280q34 -23 59 -23q40 0 60 29.5t20 88.5v1020z" />
<glyph unicode="K" horiz-adv-x="981" d="M90 1395h325v-502l246 502h322l-272 -474l314 -921h-364l-158 553l-88 -152v-401h-325v1395z" />
<glyph unicode="L" horiz-adv-x="853" d="M101 1395h326v-1110h448v-285h-774v1395z" />
<glyph unicode="M" horiz-adv-x="1301" d="M99 1395h356l195 -534l195 534h357v-1395h-318v522q0 198 16 402h-24q-21 -101 -83 -278l-143 -407l-142 407q-62 178 -83 278h-25q17 -189 17 -402v-522h-318v1395z" />
<glyph unicode="N" horiz-adv-x="1109" d="M94 1395h331l159 -442q71 -197 109 -341h17l-8 236v547h312v-1395h-330l-159 442q-71 197 -109 342h-18l8 -236v-548h-312v1395z" />
<glyph unicode="O" horiz-adv-x="1131" d="M539 1418q253 0 399 -191t146 -522q0 -332 -147 -529.5t-381 -197.5q-243 0 -376 205t-133 511q0 212 65 380.5t182 256t245 87.5zM574 1124q-98 0 -150 -113t-52 -309q0 -199 50.5 -312.5t139.5 -113.5q88 0 141 117t53 312q0 202 -53.5 310.5t-128.5 108.5z" />
<glyph unicode="P" horiz-adv-x="1024" d="M89 1395h497q193 0 299 -103.5t106 -293.5q0 -99 -35 -198.5t-147.5 -173t-282.5 -73.5h-110v-553h-327v1395zM416 1126v-299h72q80 0 127.5 41.5t47.5 116.5q0 71 -36.5 106t-109.5 35h-101z" />
<glyph unicode="Q" horiz-adv-x="1131" d="M760 25q56 -98 155 -98q59 0 126 47v-254q-92 -38 -179 -38q-125 0 -203.5 68.5t-139.5 231.5q-227 21 -349.5 222t-122.5 482q0 339 144 535.5t374 196.5q232 0 375.5 -192t143.5 -533q0 -184 -47.5 -326.5t-116 -217.5t-160.5 -124zM569 1125q-95 0 -147 -117t-52 -310 q0 -198 52.5 -312t141.5 -114q90 0 141 118t51 314q0 202 -54 311.5t-133 109.5z" />
<glyph unicode="R" horiz-adv-x="1024" d="M89 1395h501q170 0 275.5 -88t105.5 -250q0 -133 -75.5 -226.5t-226.5 -147.5q189 -30 234 -240l95 -443h-356l-52 386q-14 98 -46.5 143t-99.5 45h-30v-574h-325v1395zM414 1124v-299h71q76 0 116 45t40 114q0 70 -35 105t-106 35h-86z" />
<glyph unicode="S" horiz-adv-x="939" d="M66 417q161 -150 304 -150q73 0 125 47t52 114q0 54 -37 96q-38 42 -142 94q-147 72 -224 161q-78 89 -78 226q0 174 122 293.5t323 119.5q138 0 287 -74v-333q-132 127 -253 127q-60 0 -104 -36t-44 -87q0 -50 36 -86q35 -36 130 -78q157 -70 238 -160q81 -91 81 -245 q0 -194 -139.5 -331t-340.5 -137q-156 0 -336 94v345z" />
<glyph unicode="T" horiz-adv-x="981" d="M50 1395h881v-283h-283v-1112h-325v1112h-273v283z" />
<glyph unicode="U" d="M84 1395h324v-924q0 -110 30.5 -165.5t91.5 -55.5q64 0 95.5 50.5t31.5 151.5v943h326v-961q0 -218 -119.5 -337t-336.5 -119q-210 0 -326.5 115t-116.5 341v961z" />
<glyph unicode="V" horiz-adv-x="1045" d="M15 1395h349l154 -917l159 917h354l-354 -1395h-322z" />
<glyph unicode="W" horiz-adv-x="1387" d="M854 1395l59 -705q16 -197 16 -318h22q2 118 28 393l58 630h331l-260 -1395h-326l-52 659q-21 264 -27 413h-20q-7 -176 -27 -413l-52 -659h-326l-260 1395h331l58 -630q26 -279 28 -393h22q0 121 16 318l59 705h322z" />
<glyph unicode="X" d="M103 1395h344l86 -410l88 410h350l-215 -621l274 -774h-363l-134 557l-137 -557h-360l277 774z" />
<glyph unicode="Y" horiz-adv-x="1024" d="M24 1395h367l119 -442l117 442h372l-329 -756v-639h-326v639z" />
<glyph unicode="Z" horiz-adv-x="1003" d="M105 1395h795v-283l-470 -828h516v-284h-890v284l468 828h-419v283z" />
<glyph unicode="[" horiz-adv-x="789" d="M296 1395h398v-185h-180v-1466h180v-188h-398v1839z" />
<glyph unicode="\" horiz-adv-x="768" d="M60 1425h205l443 -1585h-201z" />
<glyph unicode="]" horiz-adv-x="789" d="M494 -444h-398v185h180v1466h-180v188h398v-1839z" />
<glyph unicode="^" horiz-adv-x="1195" d="M115 596l376 799h223l366 -799h-284l-198 490l-197 -490h-286z" />
<glyph unicode="_" horiz-adv-x="1131" d="M-12 -154h1155v-102h-1155v102z" />
<glyph unicode="`" horiz-adv-x="683" d="M98 1382h251l147 -294h-188z" />
<glyph unicode="a" horiz-adv-x="917" d="M147 898q163 77 309 77q108 0 188.5 -38t135.5 -123t55 -217v-320q0 -139 57 -277h-318q-18 40 -29 91q-47 -56 -98.5 -84.5t-108.5 -28.5q-111 0 -198.5 88.5t-87.5 215.5q0 286 493 349q-11 52 -54 78t-118 26q-110 0 -226 -90v253zM545 473q-200 -18 -200 -149 q0 -49 30 -83t71 -34q48 0 73.5 41t25.5 103v122z" />
<glyph unicode="b" horiz-adv-x="1003" d="M100 1395h313v-537q47 59 99.5 88t109.5 29q145 0 235.5 -143t90.5 -335q0 -217 -107 -368t-253 -151q-54 0 -103.5 26t-94.5 77l-86 -81h-204v1395zM413 299q20 -26 41.5 -39t45.5 -13q54 0 88.5 63t34.5 175q0 103 -29.5 160.5t-81.5 57.5q-49 0 -74 -44.5t-25 -134.5 v-225z" />
<glyph unicode="c" horiz-adv-x="747" d="M666 37q-103 -59 -202 -59q-174 0 -293.5 143.5t-119.5 353.5q0 209 122.5 354.5t306.5 145.5q81 0 186 -40v-287q-65 47 -116 47q-73 0 -123 -60t-50 -152t50.5 -154.5t118.5 -62.5q59 0 120 53v-282z" />
<glyph unicode="d" horiz-adv-x="1003" d="M590 1395h319v-1395h-281l-29 111q-45 -66 -98 -99.5t-114 -33.5q-145 0 -236 148.5t-91 343.5q0 203 97.5 354t248.5 151q46 0 92 -19.5t92 -59.5v499zM590 657q-21 28 -43 42t-46 14q-55 0 -88 -63t-33 -167q0 -100 31.5 -163.5t83.5 -63.5q45 0 70 46.5t25 111.5v243z " />
<glyph unicode="e" horiz-adv-x="960" d="M861 81q-183 -103 -341 -103q-206 0 -334.5 139t-128.5 356q0 210 121.5 356t324.5 146q180 0 288 -125t108 -335v-79h-512q22 -96 75 -144t137 -48q65 0 119 29t143 104v-296zM621 605v32q0 65 -34 111t-85 46q-60 0 -92.5 -47t-37.5 -142h249z" />
<glyph unicode="f" horiz-adv-x="597" d="M137 953v162q0 144 84 223.5t219 79.5q74 0 164 -34v-258q-39 24 -70 24q-40 0 -60 -23.5t-20 -71.5v-102h150v-233h-150v-720h-317v720h-118v233h118z" />
<glyph unicode="g" horiz-adv-x="1003" d="M580 115q-41 -57 -91 -86t-110 -29q-134 0 -231 140t-97 337q0 192 98 345t251 153q58 0 108 -24.5t92 -74.5l86 77h212v-915q0 -213 -118 -358.5t-335 -145.5q-159 0 -331 89v314q151 -118 263 -118q87 0 145 58.5t58 147.5v90zM580 662q-22 25 -44 37t-44 12 q-55 0 -87 -59.5t-32 -155.5q0 -98 31 -158.5t81 -60.5q48 0 71.5 46t23.5 137v202z" />
<glyph unicode="h" horiz-adv-x="981" d="M101 1395h316v-525q46 53 98.5 79t111.5 26q113 0 185.5 -86.5t72.5 -212.5v-676h-318v627q0 77 -63 77q-43 0 -65 -42t-22 -126v-536h-316v1395z" />
<glyph unicode="i" horiz-adv-x="533" d="M268 1418q65 0 118 -47t53 -122q0 -71 -50.5 -120t-120.5 -49q-72 0 -121.5 50.5t-49.5 119.5q0 70 51 119t120 49zM108 953h317v-953h-317v953z" />
<glyph unicode="j" horiz-adv-x="533" d="M271 1418q65 0 117.5 -47t52.5 -122q0 -70 -50 -119.5t-120 -49.5q-72 0 -121.5 50.5t-49.5 119.5q0 70 51 119t120 49zM110 953h318v-1047q0 -186 -76 -279t-229 -93q-88 0 -164 36v257q40 -23 72 -23q40 0 59.5 25.5t19.5 76.5v1047z" />
<glyph unicode="k" horiz-adv-x="896" d="M103 1395h316v-731l152 289h296l-183 -266l222 -687h-335l-108 362l-44 -63v-299h-316v1395z" />
<glyph unicode="l" horiz-adv-x="533" d="M107 1395h318v-1395h-318v1395z" />
<glyph unicode="m" horiz-adv-x="1451" d="M844 821q45 77 105 115.5t136 38.5q123 0 197 -91.5t74 -235.5v-648h-317v586q0 112 -64 112q-44 0 -66 -41.5t-22 -125.5v-531h-315v586q0 112 -63 112q-39 0 -63 -42.5t-24 -105.5v-550h-313v953h268l35 -103q42 63 96 94t121 31q145 0 215 -154z" />
<glyph unicode="n" horiz-adv-x="981" d="M406 854q42 61 95.5 91t119.5 30q113 0 188.5 -82.5t75.5 -205.5v-687h-317v621q0 81 -60 81q-42 0 -67 -44t-25 -123v-535h-314v953h273z" />
<glyph unicode="o" horiz-adv-x="1003" d="M497 975q197 0 323 -130t126 -364q0 -222 -121 -362.5t-329 -140.5t-324 139t-116 354q0 224 121.5 364t319.5 140zM500 731q-59 0 -89 -63.5t-30 -190.5q0 -125 29.5 -188t88.5 -63q60 0 89.5 62.5t29.5 187.5q0 128 -29.5 191.5t-88.5 63.5z" />
<glyph unicode="p" horiz-adv-x="1003" d="M400 846q43 65 96.5 97t118.5 32q151 0 241 -143.5t90 -340.5q0 -144 -46 -259.5t-125.5 -184.5t-180.5 -69q-48 0 -93.5 20t-88.5 60v-502h-314v1397h271zM412 303q18 -26 40 -39.5t48 -13.5q57 0 89 62t32 169q0 109 -30.5 167t-80.5 58q-49 0 -73.5 -42.5 t-24.5 -128.5v-232z" />
<glyph unicode="q" horiz-adv-x="1003" d="M588 90q-45 -56 -93.5 -84t-101.5 -28q-144 0 -238 148.5t-94 340.5q0 202 99 355t252 153q57 0 105.5 -24.5t88.5 -74.5l84 77h215v-1397h-317v534zM588 657q-16 26 -37 39t-46 13q-53 0 -87.5 -65t-34.5 -169q0 -97 31 -159t81 -62q43 0 68 45t25 109v249z" />
<glyph unicode="r" horiz-adv-x="661" d="M404 827q29 74 71 111t98 37q36 0 77 -22v-300q-49 24 -89 24q-61 0 -101 -49.5t-40 -126.5v-501h-322v953h274z" />
<glyph unicode="s" horiz-adv-x="832" d="M64 351q153 -126 265 -126q43 0 74 22.5t31 59.5q0 28 -24.5 47.5t-91.5 45.5q-160 62 -207 135t-47 145q0 133 109.5 214t266.5 81q136 0 269 -62v-283q-111 96 -213 96q-46 0 -69 -15t-23 -46q0 -42 99 -74q269 -89 269 -285q0 -138 -110.5 -233t-284.5 -95 q-146 0 -313 83v290z" />
<glyph unicode="t" horiz-adv-x="661" d="M184 1240h264v-287h158v-233h-144v-390q0 -90 72 -90q35 0 72 27v-258q-88 -31 -179 -31q-148 0 -217.5 70.5t-69.5 218.5v453h-117v233h135z" />
<glyph unicode="u" horiz-adv-x="981" d="M101 953h316v-590q0 -54 15.5 -81.5t45.5 -27.5q35 0 58.5 31.5t23.5 77.5v590h322v-953h-274l-30 95q-47 -58 -100.5 -87.5t-114.5 -29.5q-114 0 -188 93t-74 231v651z" />
<glyph unicode="v" horiz-adv-x="811" d="M-22 953h337l92 -618l101 618h325l-274 -953h-315z" />
<glyph unicode="w" horiz-adv-x="1301" d="M-5 953h320l98 -650l78 650h314l80 -668l103 668h318l-252 -953h-320l-86 728l-88 -728h-314z" />
<glyph unicode="x" horiz-adv-x="853" d="M51 953h325l55 -341l84 341h288l-168 -438l211 -515h-352l-75 400l-78 -400h-331l211 505z" />
<glyph unicode="y" horiz-adv-x="875" d="M14 953h339l93 -634l87 634h328l-255 -953q-60 -222 -105 -302t-114.5 -122t-153.5 -42q-83 0 -168 40v244q47 -30 85 -30q59 0 85 47.5t49 147.5z" />
<glyph unicode="z" horiz-adv-x="853" d="M84 953h696v-242l-338 -468h371v-243h-761v243l337 468h-305v242z" />
<glyph unicode="{" horiz-adv-x="789" d="M53 337v240q109 1 164 64.5t55 284.5q0 170 12.5 251.5t60.5 136.5t124 79.5t215 24.5h53v-240q-145 0 -173.5 -29.5t-30.5 -116.5q-6 -241 -15.5 -312.5t-44 -137.5t-128.5 -125q89 -54 129.5 -129t47.5 -216l15 -292q9 -41 43 -63t156 -22v-239h-52q-160 0 -247 36.5 t-126 119.5t-39 268q0 204 -14 261t-54 104.5t-151 51.5z" />
<glyph unicode="|" horiz-adv-x="1203" d="M493 1418h217v-1884h-217v1884z" />
<glyph unicode="}" horiz-adv-x="789" d="M737 337q-109 -2 -164 -65.5t-55 -284.5q0 -169 -12 -250.5t-60 -136.5t-124 -79.5t-215 -24.5h-53v239q139 0 170.5 29.5t33.5 117.5q6 257 18.5 329t50 135t118.5 111q-86 56 -120 109.5t-46 117.5t-18 236.5t-14 197.5t-38.5 42.5t-155.5 17.5v240h53q160 0 247 -36.5 t126 -119.5t39 -268t14 -260.5t62.5 -113.5t142.5 -43v-240z" />
<glyph unicode="~" horiz-adv-x="1344" d="M1227 619q-170 -139 -310 -139q-60 0 -119 20t-180 78q-131 63 -198 63q-138 0 -303 -147v224q160 137 316 137q95 0 271 -84q158 -76 230 -76q128 0 293 147v-223z" />
<glyph unicode="&#xa1;" horiz-adv-x="597" d="M305 634q-78 0 -127 50t-49 119q0 72 49.5 121t119.5 49t119 -49.5t49 -119.5q0 -74 -51 -122t-110 -48zM134 -444l41 971h250l44 -971h-335z" />
<glyph unicode="&#xa2;" horiz-adv-x="747" d="M347 1335h179v-171q91 -14 149 -42v-295q-56 54 -119 54q-70 0 -119.5 -61.5t-49.5 -151.5q0 -92 49.5 -151.5t121.5 -59.5q59 0 117 50v-288q-74 -33 -149 -47v-172h-179v195q-143 71 -214.5 190t-71.5 286q0 120 40 215t98.5 150t147.5 106v193z" />
<glyph unicode="&#xa3;" horiz-adv-x="1088" d="M311 773q-63 127 -63 222q0 150 120.5 256t330.5 106q106 0 286 -52v-290q-127 88 -235 88q-77 0 -130 -40t-53 -104q0 -51 61 -186h275v-211h-244q-24 -84 -118 -215q38 20 65.5 30t44.5 10q53 0 131 -59q68 -53 109 -53q43 0 94 41v-296q-68 -42 -138 -42 q-71 0 -174 82q-80 64 -127 64q-38 0 -75.5 -31t-75.5 -93h-287q44 83 107 182q97 155 119.5 219.5t22.5 160.5h-212v211h166z" />
<glyph unicode="&#xa4;" horiz-adv-x="1429" d="M968 1061l132 133l140 -142l-131 -133q73 -121 73 -249q0 -135 -73 -254l131 -130l-140 -141l-132 129q-59 -37 -123 -55.5t-132 -18.5q-65 0 -127.5 18.5t-122.5 55.5l-130 -129l-143 141l132 130q-74 119 -74 254q0 126 74 249l-132 133l140 142l133 -133 q62 37 124.5 55.5t126.5 18.5t127.5 -18.5t126.5 -55.5zM447 674q0 -119 80 -196.5t188 -77.5q111 0 189.5 78.5t78.5 188.5q0 111 -78.5 189.5t-189.5 78.5q-115 0 -191.5 -81.5t-76.5 -179.5z" />
<glyph unicode="&#xa5;" horiz-adv-x="1024" d="M807 953h193v-216h-288l-41 -96v-133h329v-217h-329v-291h-327v291h-320v217h320v133l-40 96h-280v216h188l-188 442h367l119 -442l117 442h373z" />
<glyph unicode="&#xa6;" horiz-adv-x="1203" d="M493 1418h217v-731h-217v731zM493 264h217v-730h-217v730z" />
<glyph unicode="&#xa7;" horiz-adv-x="1045" d="M219 850q-34 58 -51.5 109.5t-17.5 97.5q0 145 112 241.5t265 96.5q146 0 262 -91t120 -249h-238q-17 134 -123 134q-47 0 -78.5 -24.5t-31.5 -67.5q0 -44 45 -81q44 -38 178 -103q127 -62 192.5 -108.5t105.5 -118t40 -149.5q0 -167 -176 -325q32 -59 48 -112.5 t16 -100.5q0 -144 -112.5 -242.5t-276.5 -98.5q-117 0 -204 49t-120.5 117.5t-41.5 175.5h246q1 -132 115 -132q52 0 83.5 26t31.5 66q0 44 -42 81t-171 98q-191 90 -270 170q-79 79 -79 191q0 80 32.5 156t140.5 194zM343 738q-61 -70 -61 -128q0 -55 49 -98t371 -186 q72 67 72 129q0 52 -66.5 103.5t-308.5 155.5z" />
<glyph unicode="&#xa8;" horiz-adv-x="683" d="M151 1380q61 0 104 -43t43 -103t-43 -103t-104 -43q-60 0 -103 42.5t-43 103.5t43 103.5t103 42.5zM530 1380q59 0 103.5 -42t44.5 -106q0 -60 -43.5 -103.5t-104.5 -43.5t-104.5 43.5t-43.5 103.5q0 62 43.5 105t104.5 43z" />
<glyph unicode="&#xa9;" horiz-adv-x="1515" d="M736 1418q348 0 567 -230.5t219 -535.5q0 -318 -224 -542.5t-542 -224.5t-542 224.5t-224 541.5q0 224 118.5 410.5t296.5 271.5t331 85zM772 1267q-276 0 -453.5 -183.5t-177.5 -431.5q0 -255 180 -435.5t435 -180.5q254 0 434.5 181t180.5 434q0 175 -91 322.5 t-234 220.5t-274 73zM942 538l161 -55q-81 -259 -339 -259q-175 0 -279.5 115t-104.5 308q0 199 106.5 314t273.5 115q130 0 212 -56.5t131 -186.5l-162 -39q-52 140 -178 140q-105 0 -156 -79t-51 -197q0 -131 48 -211.5t149 -80.5q140 0 189 172z" />
<glyph unicode="&#xaa;" horiz-adv-x="619" d="M102 1368q107 50 204 50q119 0 185 -67t66 -182v-199q0 -107 38 -195h-208l-20 60q-31 -37 -64 -55.5t-68 -18.5q-76 0 -136 56t-60 145q0 100 78 151.5t250 76.5q-18 37 -47 55t-68 18q-68 0 -150 -59v164zM367 1089q-135 -14 -135 -100q0 -32 20 -54.5t49 -22.5 q33 0 49.5 25.5t16.5 75.5v76z" />
<glyph unicode="&#xab;" horiz-adv-x="811" d="M170 792h211l-107 -316l107 -319h-211l-106 319zM529 792h210l-106 -316l106 -319h-210l-106 319z" />
<glyph unicode="&#xac;" horiz-adv-x="1365" d="M126 1018h1114v-702h-214v487h-900v215z" />
<glyph unicode="&#xad;" horiz-adv-x="768" d="M121 634h527v-315h-527v315z" />
<glyph unicode="&#xae;" horiz-adv-x="1515" d="M736 1418q348 0 567 -230.5t219 -536.5q0 -316 -225 -541t-541 -225t-541 225.5t-225 540.5q0 218 113.5 401.5t291.5 274.5t341 91zM774 1268q-276 0 -454 -183.5t-178 -433.5q0 -255 180.5 -435.5t435.5 -180.5q253 0 434 181t181 435q0 265 -187 441t-412 176z M410 242v813h386q144 0 208.5 -67.5t64.5 -162.5q0 -94 -54.5 -151t-164.5 -77q49 -19 79 -51.5t93 -140.5l96 -163h-204l-68 131q-61 117 -107 160t-121 43h-43v-334h-165zM575 704h133q101 0 143.5 26.5t42.5 87.5q0 54 -42 80.5t-127 26.5h-150v-221z" />
<glyph unicode="&#xaf;" horiz-adv-x="1131" d="M-12 1651h1155v-102h-1155v102z" />
<glyph unicode="&#xb0;" horiz-adv-x="811" d="M86 1090q0 144 95.5 236t223.5 92q132 0 225.5 -94t93.5 -226t-93.5 -225.5t-224.5 -93.5q-141 0 -230.5 97.5t-89.5 213.5zM252 1102q0 -67 45.5 -111.5t107.5 -44.5q63 0 108 44.5t45 107.5t-45 108t-108 45q-66 0 -109.5 -46.5t-43.5 -102.5z" />
<glyph unicode="&#xb1;" horiz-adv-x="1365" d="M125 963h449v451h215v-451h451v-214h-451v-449h-215v449h-449v214zM125 215h1115v-215h-1115v215z" />
<glyph unicode="&#xb2;" horiz-adv-x="747" d="M151 1362q132 50 225 50q112 0 186.5 -61.5t74.5 -155.5q0 -128 -181 -275q-73 -61 -94 -89t-21 -55h308v-175h-535v139q0 80 40.5 148t168.5 176q81 68 81 106q0 30 -23 50t-58 20q-69 0 -172 -76v198z" />
<glyph unicode="&#xb3;" horiz-adv-x="747" d="M146 1363q142 49 222 49q89 0 167.5 -57.5t78.5 -149.5q0 -104 -112 -181q74 -26 110.5 -73t36.5 -114q0 -108 -83 -180t-215 -72q-96 0 -205 41v199q6 -3 16 -9q96 -58 146 -58q49 0 78.5 25t29.5 64q0 34 -34 60.5t-105 26.5h-55v162q160 0 160 68q0 30 -22.5 50.5 t-53.5 20.5q-68 0 -160 -76v204z" />
<glyph unicode="&#xb4;" horiz-adv-x="683" d="M334 1382h253l-210 -294h-189z" />
<glyph unicode="&#xb5;" horiz-adv-x="1024" d="M102 1062h324v-692q0 -141 78 -141q97 0 97 232v601h321v-1062h-306v123q-61 -142 -190 -144v-386h-324v1469z" />
<glyph unicode="&#xb6;" horiz-adv-x="1131" d="M634 -444h-243v1017q-394 44 -394 404q0 116 45 205.5t121.5 140t147 61.5t220.5 11h597v-260h-113v-1579h-237v1579h-144v-1579z" />
<glyph unicode="&#xb8;" horiz-adv-x="683" d="M291 20h127v-141q103 0 157.5 -41.5t54.5 -114.5q0 -77 -68 -132t-175 -55q-75 0 -159 32v127q85 -46 138 -46q44 0 68.5 20.5t24.5 49.5q0 25 -26 40.5t-64 15.5h-78v245z" />
<glyph unicode="&#xb9;" horiz-adv-x="747" d="M300 1395h197v-794h-225v495h-124v162h23q129 0 129 137z" />
<glyph unicode="&#xba;" horiz-adv-x="661" d="M313 1418q153 0 232 -91t79 -236q0 -146 -80 -238.5t-218 -92.5q-133 0 -211.5 89.5t-78.5 236.5q0 152 82.5 242t194.5 90zM332 1258q-40 0 -60.5 -42.5t-20.5 -128.5q0 -82 19.5 -123.5t58.5 -41.5q40 0 59.5 43.5t19.5 130.5q0 81 -19 121.5t-57 40.5z" />
<glyph unicode="&#xbb;" horiz-adv-x="811" d="M640 157h-210l107 316l-107 319h210l106 -319zM281 157h-210l107 316l-107 319h210l107 -319z" />
<glyph unicode="&#xbc;" horiz-adv-x="1707" d="M1341 1395l-730 -1484h-206l727 1484h209zM308 1395h197v-794h-225v495h-124v162h23q129 0 129 137zM1297 705h241v-432h97v-154h-97v-208h-214v208h-289v193zM1182 273h142v214z" />
<glyph unicode="&#xbd;" horiz-adv-x="1707" d="M1341 1395l-730 -1484h-206l727 1484h209zM308 1395h197v-794h-225v495h-124v162h23q129 0 129 137zM1110 672q133 50 226 50q111 0 185.5 -62t74.5 -156q0 -127 -180 -275q-73 -60 -94 -88t-21 -56h308v-174h-535v139q0 79 40.5 147.5t168.5 176.5q80 68 80 106 q0 31 -23.5 50t-56.5 19q-72 0 -173 -75v198z" />
<glyph unicode="&#xbe;" horiz-adv-x="1707" d="M154 1363q140 49 211 49q104 0 180.5 -59t76.5 -148q0 -104 -112 -181q74 -26 110.5 -73t36.5 -114q0 -108 -83 -180t-215 -72q-96 0 -205 41v199q6 -3 16 -9q96 -58 146 -58q49 0 78.5 25t29.5 64q0 34 -34 60.5t-105 26.5h-55v162q160 0 160 68q0 30 -22.5 50.5 t-53.5 20.5q-68 0 -160 -76v204zM1341 1395l-731 -1484h-205l726 1484h210zM1297 705h241v-432h97v-154h-97v-208h-214v208h-290v193zM1182 273h142v214z" />
<glyph unicode="&#xbf;" horiz-adv-x="917" d="M557 632q-78 0 -127.5 50t-49.5 120q0 71 50 121t120 50t119.5 -50t49.5 -120q0 -72 -51 -121.5t-111 -49.5zM854 -387q-209 -80 -352 -80q-182 0 -313.5 101t-131.5 266q0 92 41.5 156.5t142.5 156.5q98 89 135.5 147.5t37.5 140.5v24h273v-56q0 -128 -36.5 -200 t-143.5 -175q-78 -75 -102.5 -110.5t-24.5 -72.5q0 -57 52 -90t116 -33q141 0 306 109v-284z" />
<glyph unicode="&#xc0;" d="M371 1395h323l367 -1395h-354l-49 277h-266l-52 -277h-333zM526 1014l-89 -487h176zM273 1787h251l147 -294h-188z" />
<glyph unicode="&#xc1;" d="M371 1395h323l367 -1395h-354l-49 277h-266l-52 -277h-333zM526 1014l-89 -487h176zM558 1787h253l-210 -294h-189z" />
<glyph unicode="&#xc2;" d="M371 1395h323l367 -1395h-354l-49 277h-266l-52 -277h-333zM526 1014l-89 -487h176zM402 1785h295l150 -294h-191l-106 153l-104 -153h-189z" />
<glyph unicode="&#xc3;" d="M371 1395h323l367 -1395h-354l-49 277h-266l-52 -277h-333zM526 1014l-89 -487h176zM866 1770v-34q0 -96 -53 -163t-145 -67q-71 0 -170 74q-43 32 -65 32q-25 0 -38 -23t-13 -69h-167v31q0 108 54.5 170.5t136.5 62.5q79 0 172 -71q47 -35 69 -35q25 0 37 19t12 56v17 h170z" />
<glyph unicode="&#xc4;" d="M371 1395h323l367 -1395h-354l-49 277h-266l-52 -277h-333zM526 1014l-89 -487h176zM350 1785q61 0 104 -43t43 -103t-43 -103t-104 -43q-60 0 -103 42.5t-43 103.5t43 103.5t103 42.5zM729 1785q59 0 103.5 -42t44.5 -106q0 -60 -43.5 -103.5t-104.5 -43.5t-104.5 43.5 t-43.5 103.5q0 62 43.5 105t104.5 43z" />
<glyph unicode="&#xc5;" d="M388 1395q-23 41 -23 86q0 70 49.5 119t118.5 49q70 0 119.5 -49.5t49.5 -118.5q0 -45 -24 -86h16l367 -1395h-354l-49 277h-266l-52 -277h-333l364 1395h17zM534 1546q-26 0 -45 -18t-19 -45q0 -26 18.5 -45t45.5 -19q26 0 45 19t19 45t-19 44.5t-45 18.5zM526 1014 l-89 -487h176z" />
<glyph unicode="&#xc6;" horiz-adv-x="1536" d="M390 1395h1087v-282h-470v-256h438v-273h-438v-299h470v-285h-793v380h-268l-99 -380h-350zM606 1143l-127 -510h205v510h-78z" />
<glyph unicode="&#xc7;" horiz-adv-x="875" d="M564 -22v-99q113 0 162 -46t49 -110q0 -77 -67.5 -132t-174.5 -55q-76 0 -159 32v127q85 -46 138 -46q43 0 68 20.5t25 49.5q0 25 -26 40.5t-64 15.5h-78v224q-178 59 -278 248.5t-100 445.5q0 323 148.5 524t381.5 201q99 0 213 -51v-319q-79 78 -170 78 q-113 0 -178.5 -114t-65.5 -330q0 -185 65.5 -296.5t173.5 -111.5q79 0 175 75v-314q-116 -55 -238 -57z" />
<glyph unicode="&#xc8;" horiz-adv-x="960" d="M101 1395h795v-281h-470v-256h438v-273h-438v-300h470v-285h-795v1395zM248 1787h251l147 -294h-188z" />
<glyph unicode="&#xc9;" horiz-adv-x="960" d="M101 1395h795v-281h-470v-256h438v-273h-438v-300h470v-285h-795v1395zM509 1787h253l-210 -294h-189z" />
<glyph unicode="&#xca;" horiz-adv-x="960" d="M101 1395h795v-281h-470v-256h438v-273h-438v-300h470v-285h-795v1395zM366 1785h295l150 -294h-191l-106 153l-104 -153h-189z" />
<glyph unicode="&#xcb;" horiz-adv-x="960" d="M101 1395h795v-281h-470v-256h438v-273h-438v-300h470v-285h-795v1395zM301 1785q61 0 104 -43t43 -103t-43 -103t-104 -43q-60 0 -103 42.5t-43 103.5t43 103.5t103 42.5zM680 1785q59 0 103.5 -42t44.5 -106q0 -60 -43.5 -103.5t-104.5 -43.5t-104.5 43.5t-43.5 103.5 q0 62 43.5 105t104.5 43z" />
<glyph unicode="&#xcc;" horiz-adv-x="533" d="M103 1395h328v-1395h-328v1395zM2 1787h251l147 -294h-188z" />
<glyph unicode="&#xcd;" horiz-adv-x="533" d="M103 1395h328v-1395h-328v1395zM287 1787h253l-210 -294h-189z" />
<glyph unicode="&#xce;" horiz-adv-x="533" d="M103 1395h328v-1395h-328v1395zM117 1788h295l150 -294h-191l-106 153l-104 -153h-189z" />
<glyph unicode="&#xcf;" horiz-adv-x="533" d="M102 1395h328v-1395h-328v1395zM76 1785q61 0 104 -43t43 -103t-43 -103t-104 -43q-60 0 -103 42.5t-43 103.5t43 103.5t103 42.5zM455 1785q59 0 103.5 -42t44.5 -106q0 -60 -43.5 -103.5t-104.5 -43.5t-104.5 43.5t-43.5 103.5q0 62 43.5 105t104.5 43z" />
<glyph unicode="&#xd0;" horiz-adv-x="1088" d="M101 1395h407q264 0 395.5 -171t131.5 -514q0 -317 -143.5 -513.5t-427.5 -196.5h-363v577h-80v240h80v578zM425 1124v-307h139v-240h-139v-304h23q254 0 254 457q0 187 -57.5 290.5t-176.5 103.5h-43z" />
<glyph unicode="&#xd1;" horiz-adv-x="1109" d="M94 1395h331l159 -442q71 -197 109 -341h17l-8 236v547h312v-1395h-330l-159 442q-71 197 -109 342h-18l8 -236v-548h-312v1395zM888 1770v-34q0 -96 -53 -163t-145 -67q-71 0 -170 74q-43 32 -65 32q-25 0 -38 -23t-13 -69h-167v31q0 108 54.5 170.5t136.5 62.5 q79 0 172 -71q47 -35 69 -35q25 0 37 19t12 56v17h170z" />
<glyph unicode="&#xd2;" horiz-adv-x="1131" d="M539 1418q253 0 399 -191t146 -522q0 -332 -147 -529.5t-381 -197.5q-243 0 -376 205t-133 511q0 212 65 380.5t182 256t245 87.5zM574 1124q-98 0 -150 -113t-52 -309q0 -199 50.5 -312.5t139.5 -113.5q88 0 141 117t53 312q0 202 -53.5 310.5t-128.5 108.5zM307 1787 h251l147 -294h-188z" />
<glyph unicode="&#xd3;" horiz-adv-x="1131" d="M539 1418q253 0 399 -191t146 -522q0 -332 -147 -529.5t-381 -197.5q-243 0 -376 205t-133 511q0 212 65 380.5t182 256t245 87.5zM574 1124q-98 0 -150 -113t-52 -309q0 -199 50.5 -312.5t139.5 -113.5q88 0 141 117t53 312q0 202 -53.5 310.5t-128.5 108.5zM592 1787 h253l-210 -294h-189z" />
<glyph unicode="&#xd4;" horiz-adv-x="1131" d="M539 1418q253 0 399 -191t146 -522q0 -332 -147 -529.5t-381 -197.5q-243 0 -376 205t-133 511q0 212 65 380.5t182 256t245 87.5zM574 1124q-98 0 -150 -113t-52 -309q0 -199 50.5 -312.5t139.5 -113.5q88 0 141 117t53 312q0 202 -53.5 310.5t-128.5 108.5zM425 1785 h295l150 -294h-191l-106 153l-104 -153h-189z" />
<glyph unicode="&#xd5;" horiz-adv-x="1131" d="M539 1418q253 0 399 -191t146 -522q0 -332 -147 -529.5t-381 -197.5q-243 0 -376 205t-133 511q0 212 65 380.5t182 256t245 87.5zM574 1124q-98 0 -150 -113t-52 -309q0 -199 50.5 -312.5t139.5 -113.5q88 0 141 117t53 312q0 202 -53.5 310.5t-128.5 108.5zM900 1770 v-34q0 -96 -53 -163t-145 -67q-71 0 -170 74q-43 32 -65 32q-25 0 -38 -23t-13 -69h-167v31q0 108 54.5 170.5t136.5 62.5q79 0 172 -71q47 -35 69 -35q25 0 37 19t12 56v17h170z" />
<glyph unicode="&#xd6;" horiz-adv-x="1131" d="M539 1418q253 0 399 -191t146 -522q0 -332 -147 -529.5t-381 -197.5q-243 0 -376 205t-133 511q0 212 65 380.5t182 256t245 87.5zM574 1124q-98 0 -150 -113t-52 -309q0 -199 50.5 -312.5t139.5 -113.5q88 0 141 117t53 312q0 202 -53.5 310.5t-128.5 108.5zM384 1785 q61 0 104 -43t43 -103t-43 -103t-104 -43q-60 0 -103 42.5t-43 103.5t43 103.5t103 42.5zM763 1785q59 0 103.5 -42t44.5 -106q0 -60 -43.5 -103.5t-104.5 -43.5t-104.5 43.5t-43.5 103.5q0 62 43.5 105t104.5 43z" />
<glyph unicode="&#xd7;" horiz-adv-x="1365" d="M158 1040l151 152l375 -375l374 375l152 -152l-373 -375l370 -371l-151 -151l-371 371l-372 -371l-152 151l372 371z" />
<glyph unicode="&#xd8;" horiz-adv-x="1131" d="M904 1268q180 -201 180 -563q0 -333 -147 -530t-381 -197q-96 0 -185 39l-48 -113h-191l94 221q-179 204 -179 569q0 329 142.5 526.5t356.5 197.5q106 0 210 -42l50 118h195zM388 508l251 593q-35 24 -68 24q-93 0 -146 -111t-53 -312q0 -115 16 -194zM742 886 l-251 -588q33 -22 73 -22q85 0 138.5 115.5t53.5 313.5q0 94 -14 181z" />
<glyph unicode="&#xd9;" d="M84 1395h324v-924q0 -110 30.5 -165.5t91.5 -55.5q64 0 95.5 50.5t31.5 151.5v943h326v-961q0 -218 -119.5 -337t-336.5 -119q-210 0 -326.5 115t-116.5 341v961zM295 1787h251l147 -294h-188z" />
<glyph unicode="&#xda;" d="M84 1395h324v-924q0 -110 30.5 -165.5t91.5 -55.5q64 0 95.5 50.5t31.5 151.5v943h326v-961q0 -218 -119.5 -337t-336.5 -119q-210 0 -326.5 115t-116.5 341v961zM555 1787h253l-210 -294h-189z" />
<glyph unicode="&#xdb;" d="M84 1395h324v-924q0 -110 30.5 -165.5t91.5 -55.5q64 0 95.5 50.5t31.5 151.5v943h326v-961q0 -218 -119.5 -337t-336.5 -119q-210 0 -326.5 115t-116.5 341v961zM388 1785h295l150 -294h-191l-106 153l-104 -153h-189z" />
<glyph unicode="&#xdc;" d="M84 1395h324v-924q0 -110 30.5 -165.5t91.5 -55.5q64 0 95.5 50.5t31.5 151.5v943h326v-961q0 -218 -119.5 -337t-336.5 -119q-210 0 -326.5 115t-116.5 341v961zM348 1785q61 0 104 -43t43 -103t-43 -103t-104 -43q-60 0 -103 42.5t-43 103.5t43 103.5t103 42.5z M727 1785q59 0 103.5 -42t44.5 -106q0 -60 -43.5 -103.5t-104.5 -43.5t-104.5 43.5t-43.5 103.5q0 62 43.5 105t104.5 43z" />
<glyph unicode="&#xdd;" horiz-adv-x="1024" d="M24 1395h367l119 -442l117 442h372l-329 -756v-639h-326v639zM511 1787h253l-210 -294h-189z" />
<glyph unicode="&#xde;" horiz-adv-x="1024" d="M413 1118h99q174 0 271.5 -34t153.5 -133t56 -264q0 -215 -94.5 -312.5t-310.5 -97.5h-175v-277h-324v1395h324v-277zM413 847v-299h99q70 0 109 41t39 113q0 73 -37 109t-111 36h-99z" />
<glyph unicode="&#xdf;" horiz-adv-x="1024" d="M127 0v1010q0 197 106 302.5t297 105.5q177 0 281.5 -91.5t104.5 -242.5q0 -188 -179 -299q255 -98 255 -363q0 -189 -102 -311t-246 -122q-51 0 -107 19v257q22 -8 36 -8q45 0 70 51.5t25 135.5q0 99 -30 146t-101 50v235q82 9 82 151q0 76 -25.5 120t-67.5 44 q-34 0 -58.5 -32t-24.5 -95v-1063h-316z" />
<glyph unicode="&#xe0;" horiz-adv-x="917" d="M147 898q163 77 309 77q108 0 188.5 -38t135.5 -123t55 -217v-320q0 -139 57 -277h-318q-18 40 -29 91q-47 -56 -98.5 -84.5t-108.5 -28.5q-111 0 -198.5 88.5t-87.5 215.5q0 286 493 349q-11 52 -54 78t-118 26q-110 0 -226 -90v253zM545 473q-200 -18 -200 -149 q0 -49 30 -83t71 -34q48 0 73.5 41t25.5 103v122zM245 1382h251l147 -294h-188z" />
<glyph unicode="&#xe1;" horiz-adv-x="917" d="M147 898q163 77 309 77q108 0 188.5 -38t135.5 -123t55 -217v-320q0 -139 57 -277h-318q-18 40 -29 91q-47 -56 -98.5 -84.5t-108.5 -28.5q-111 0 -198.5 88.5t-87.5 215.5q0 286 493 349q-11 52 -54 78t-118 26q-110 0 -226 -90v253zM545 473q-200 -18 -200 -149 q0 -49 30 -83t71 -34q48 0 73.5 41t25.5 103v122zM481 1382h253l-210 -294h-189z" />
<glyph unicode="&#xe2;" horiz-adv-x="917" d="M147 898q163 77 309 77q108 0 188.5 -38t135.5 -123t55 -217v-320q0 -139 57 -277h-318q-18 40 -29 91q-47 -56 -98.5 -84.5t-108.5 -28.5q-111 0 -198.5 88.5t-87.5 215.5q0 286 493 349q-11 52 -54 78t-118 26q-110 0 -226 -90v253zM545 473q-200 -18 -200 -149 q0 -49 30 -83t71 -34q48 0 73.5 41t25.5 103v122zM338 1380h295l150 -294h-191l-106 153l-104 -153h-189z" />
<glyph unicode="&#xe3;" horiz-adv-x="917" d="M147 898q163 77 309 77q108 0 188.5 -38t135.5 -123t55 -217v-320q0 -139 57 -277h-318q-18 40 -29 91q-47 -56 -98.5 -84.5t-108.5 -28.5q-111 0 -198.5 88.5t-87.5 215.5q0 286 493 349q-11 52 -54 78t-118 26q-110 0 -226 -90v253zM545 473q-200 -18 -200 -149 q0 -49 30 -83t71 -34q48 0 73.5 41t25.5 103v122zM814 1365v-34q0 -96 -53 -163t-145 -67q-71 0 -170 74q-43 32 -65 32q-25 0 -38 -23t-13 -69h-167v31q0 108 54.5 170.5t136.5 62.5q79 0 172 -71q47 -35 69 -35q25 0 37 19t12 56v17h170z" />
<glyph unicode="&#xe4;" horiz-adv-x="917" d="M147 898q163 77 309 77q108 0 188.5 -38t135.5 -123t55 -217v-320q0 -139 57 -277h-318q-18 40 -29 91q-47 -56 -98.5 -84.5t-108.5 -28.5q-111 0 -198.5 88.5t-87.5 215.5q0 286 493 349q-11 52 -54 78t-118 26q-110 0 -226 -90v253zM545 473q-200 -18 -200 -149 q0 -49 30 -83t71 -34q48 0 73.5 41t25.5 103v122zM298 1380q61 0 104 -43t43 -103t-43 -103t-104 -43q-60 0 -103 42.5t-43 103.5t43 103.5t103 42.5zM677 1380q59 0 103.5 -42t44.5 -106q0 -60 -43.5 -103.5t-104.5 -43.5t-104.5 43.5t-43.5 103.5q0 62 43.5 105t104.5 43z " />
<glyph unicode="&#xe5;" horiz-adv-x="917" d="M147 898q163 77 309 77q108 0 188.5 -38t135.5 -123t55 -217v-320q0 -139 57 -277h-318q-18 40 -29 91q-47 -56 -98.5 -84.5t-108.5 -28.5q-111 0 -198.5 88.5t-87.5 215.5q0 286 493 349q-11 52 -54 78t-118 26q-110 0 -226 -90v253zM545 473q-200 -18 -200 -149 q0 -49 30 -83t71 -34q48 0 73.5 41t25.5 103v122zM489 1403q69 0 118.5 -49.5t49.5 -118.5q0 -70 -49.5 -119.5t-118.5 -49.5q-70 0 -119.5 49.5t-49.5 119.5q0 69 49.5 118.5t119.5 49.5zM489 1301q-25 0 -44 -18.5t-19 -45.5q0 -26 18.5 -44.5t44.5 -18.5t45 18.5t19 44.5 q0 27 -19 45.5t-45 18.5z" />
<glyph unicode="&#xe6;" horiz-adv-x="1387" d="M685 902q113 73 237 73q188 0 295 -129.5t107 -344.5v-67h-507q28 -189 209 -189q57 0 106.5 24t153.5 106v-295q-186 -102 -345 -102q-198 0 -348 157q-57 -78 -121 -117.5t-134 -39.5q-130 0 -214 89.5t-84 208.5q0 96 58 174t154.5 114t278.5 70q-43 103 -162 103 t-236 -89v254q156 73 295 73q137 0 257 -73zM1044 608v28q0 64 -34.5 110t-85.5 46q-113 0 -127 -184h247zM531 475q-200 -33 -200 -149q0 -51 30.5 -83.5t72.5 -32.5q49 0 73 42.5t24 127.5v95z" />
<glyph unicode="&#xe7;" horiz-adv-x="747" d="M456 -22v-99q113 0 162 -45.5t49 -110.5q0 -77 -67.5 -132t-174.5 -55q-73 0 -159 32v127q85 -46 138 -46q43 0 68 20.5t25 49.5q0 21 -23.5 38.5t-66.5 17.5h-78v229q-119 45 -198.5 174.5t-79.5 296.5q0 212 124 356t305 144q77 0 186 -40v-287q-65 47 -116 47 q-73 0 -123 -60t-50 -152t50.5 -154.5t118.5 -62.5q59 0 120 53v-282q-103 -59 -210 -59z" />
<glyph unicode="&#xe8;" horiz-adv-x="960" d="M861 81q-183 -103 -341 -103q-206 0 -334.5 139t-128.5 356q0 210 121.5 356t324.5 146q180 0 288 -125t108 -335v-79h-512q22 -96 75 -144t137 -48q65 0 119 29t143 104v-296zM621 605v32q0 65 -34 111t-85 46q-60 0 -92.5 -47t-37.5 -142h249zM242 1382h251l147 -294 h-188z" />
<glyph unicode="&#xe9;" horiz-adv-x="960" d="M861 81q-183 -103 -341 -103q-206 0 -334.5 139t-128.5 356q0 210 121.5 356t324.5 146q180 0 288 -125t108 -335v-79h-512q22 -96 75 -144t137 -48q65 0 119 29t143 104v-296zM621 605v32q0 65 -34 111t-85 46q-60 0 -92.5 -47t-37.5 -142h249zM503 1382h253l-210 -294 h-189z" />
<glyph unicode="&#xea;" horiz-adv-x="960" d="M861 81q-183 -103 -341 -103q-206 0 -334.5 139t-128.5 356q0 210 121.5 356t324.5 146q180 0 288 -125t108 -335v-79h-512q22 -96 75 -144t137 -48q65 0 119 29t143 104v-296zM621 605v32q0 65 -34 111t-85 46q-60 0 -92.5 -47t-37.5 -142h249zM360 1380h295l150 -294 h-191l-106 153l-104 -153h-189z" />
<glyph unicode="&#xeb;" horiz-adv-x="960" d="M861 81q-183 -103 -341 -103q-206 0 -334.5 139t-128.5 356q0 210 121.5 356t324.5 146q180 0 288 -125t108 -335v-79h-512q22 -96 75 -144t137 -48q65 0 119 29t143 104v-296zM621 605v32q0 65 -34 111t-85 46q-60 0 -92.5 -47t-37.5 -142h249zM319 1380q61 0 104 -43 t43 -103t-43 -103t-104 -43q-60 0 -103 42.5t-43 103.5t43 103.5t103 42.5zM698 1380q59 0 103.5 -42t44.5 -106q0 -60 -43.5 -103.5t-104.5 -43.5t-104.5 43.5t-43.5 103.5q0 62 43.5 105t104.5 43z" />
<glyph unicode="&#xec;" horiz-adv-x="533" d="M108 953h317v-953h-317v953zM1 1382h251l147 -294h-188z" />
<glyph unicode="&#xed;" horiz-adv-x="533" d="M108 953h317v-953h-317v953zM285 1382h253l-210 -294h-189z" />
<glyph unicode="&#xee;" horiz-adv-x="533" d="M108 953h317v-953h-317v953zM117 1380h295l150 -294h-191l-106 153l-104 -153h-189z" />
<glyph unicode="&#xef;" horiz-adv-x="533" d="M108 953h317v-953h-317v953zM76 1380q61 0 104 -43t43 -103t-43 -103t-104 -43q-60 0 -103 42.5t-43 103.5t43 103.5t103 42.5zM455 1380q59 0 103.5 -42t44.5 -106q0 -60 -43.5 -103.5t-104.5 -43.5t-104.5 43.5t-43.5 103.5q0 62 43.5 105t104.5 43z" />
<glyph unicode="&#xf0;" d="M718 1354l161 41l38 -116l-125 -38q99 -174 148 -342.5t49 -330.5q0 -158 -47.5 -292.5t-153 -216t-255.5 -81.5q-194 0 -317 139.5t-123 352.5q0 204 110.5 354.5t266.5 150.5q71 0 110 -33q-26 107 -89 205l-217 -67l-37 126l187 56q-45 76 -95 133h356zM536 738 q-60 0 -90.5 -64t-30.5 -193q0 -128 29.5 -192t87.5 -64q56 0 88.5 66t32.5 184q0 120 -30.5 191.5t-86.5 71.5z" />
<glyph unicode="&#xf1;" horiz-adv-x="981" d="M406 854q42 61 95.5 91t119.5 30q113 0 188.5 -82.5t75.5 -205.5v-687h-317v621q0 81 -60 81q-42 0 -67 -44t-25 -123v-535h-314v953h273zM824 1384v-34q0 -96 -53 -163t-145 -67q-71 0 -170 74q-43 32 -65 32q-25 0 -38 -23t-13 -69h-167v31q0 108 54.5 170.5 t136.5 62.5q79 0 172 -71q47 -35 69 -35q25 0 37 19t12 56v17h170z" />
<glyph unicode="&#xf2;" horiz-adv-x="1003" d="M497 975q197 0 323 -130t126 -364q0 -222 -121 -362.5t-329 -140.5t-324 139t-116 354q0 224 121.5 364t319.5 140zM500 731q-59 0 -89 -63.5t-30 -190.5q0 -125 29.5 -188t88.5 -63q60 0 89.5 62.5t29.5 187.5q0 128 -29.5 191.5t-88.5 63.5zM258 1382h251l147 -294 h-188z" />
<glyph unicode="&#xf3;" horiz-adv-x="1003" d="M497 975q197 0 323 -130t126 -364q0 -222 -121 -362.5t-329 -140.5t-324 139t-116 354q0 224 121.5 364t319.5 140zM500 731q-59 0 -89 -63.5t-30 -190.5q0 -125 29.5 -188t88.5 -63q60 0 89.5 62.5t29.5 187.5q0 128 -29.5 191.5t-88.5 63.5zM494 1382h253l-210 -294 h-189z" />
<glyph unicode="&#xf4;" horiz-adv-x="1003" d="M497 975q197 0 323 -130t126 -364q0 -222 -121 -362.5t-329 -140.5t-324 139t-116 354q0 224 121.5 364t319.5 140zM500 731q-59 0 -89 -63.5t-30 -190.5q0 -125 29.5 -188t88.5 -63q60 0 89.5 62.5t29.5 187.5q0 128 -29.5 191.5t-88.5 63.5zM369 1380h295l150 -294 h-191l-106 153l-104 -153h-189z" />
<glyph unicode="&#xf5;" horiz-adv-x="1003" d="M497 975q197 0 323 -130t126 -364q0 -222 -121 -362.5t-329 -140.5t-324 139t-116 354q0 224 121.5 364t319.5 140zM500 731q-59 0 -89 -63.5t-30 -190.5q0 -125 29.5 -188t88.5 -63q60 0 89.5 62.5t29.5 187.5q0 128 -29.5 191.5t-88.5 63.5zM827 1365v-34 q0 -96 -53 -163t-145 -67q-71 0 -170 74q-43 32 -65 32q-25 0 -38 -23t-13 -69h-167v31q0 108 54.5 170.5t136.5 62.5q79 0 172 -71q47 -35 69 -35q25 0 37 19t12 56v17h170z" />
<glyph unicode="&#xf6;" horiz-adv-x="1003" d="M497 975q197 0 323 -130t126 -364q0 -222 -121 -362.5t-329 -140.5t-324 139t-116 354q0 224 121.5 364t319.5 140zM500 731q-59 0 -89 -63.5t-30 -190.5q0 -125 29.5 -188t88.5 -63q60 0 89.5 62.5t29.5 187.5q0 128 -29.5 191.5t-88.5 63.5zM311 1380q61 0 104 -43 t43 -103t-43 -103t-104 -43q-60 0 -103 42.5t-43 103.5t43 103.5t103 42.5zM690 1380q59 0 103.5 -42t44.5 -106q0 -60 -43.5 -103.5t-104.5 -43.5t-104.5 43.5t-43.5 103.5q0 62 43.5 105t104.5 43z" />
<glyph unicode="&#xf7;" horiz-adv-x="1365" d="M551 1085q0 57 38.5 93.5t89.5 36.5q53 0 91 -37.5t38 -90.5t-37.5 -90.5t-91.5 -37.5q-56 0 -92 39t-36 87zM126 769h1114v-203h-1114v203zM552 251q0 60 38.5 96.5t90.5 36.5q53 0 91.5 -37.5t38.5 -90.5q0 -54 -38.5 -91.5t-91.5 -37.5q-57 0 -93 39t-36 85z" />
<glyph unicode="&#xf8;" horiz-adv-x="1003" d="M868 1045l-84 -173q161 -135 161 -392q0 -246 -134 -374t-306 -128q-80 0 -145 30l-51 -104h-179l84 177q-156 138 -156 386q0 241 125 374.5t304 133.5q74 0 155 -22l52 92h174zM556 740q-31 11 -55 11q-67 0 -105.5 -71.5t-38.5 -183.5q0 -69 10 -139zM446 215 q21 -15 54 -15q71 0 106.5 69t35.5 207q0 67 -13 119z" />
<glyph unicode="&#xf9;" horiz-adv-x="981" d="M101 953h316v-590q0 -54 15.5 -81.5t45.5 -27.5q35 0 58.5 31.5t23.5 77.5v590h322v-953h-274l-30 95q-47 -58 -100.5 -87.5t-114.5 -29.5q-114 0 -188 93t-74 231v651zM253 1382h251l147 -294h-188z" />
<glyph unicode="&#xfa;" horiz-adv-x="981" d="M101 953h316v-590q0 -54 15.5 -81.5t45.5 -27.5q35 0 58.5 31.5t23.5 77.5v590h322v-953h-274l-30 95q-47 -58 -100.5 -87.5t-114.5 -29.5q-114 0 -188 93t-74 231v651zM489 1382h253l-210 -294h-189z" />
<glyph unicode="&#xfb;" horiz-adv-x="981" d="M101 953h316v-590q0 -54 15.5 -81.5t45.5 -27.5q35 0 58.5 31.5t23.5 77.5v590h322v-953h-274l-30 95q-47 -58 -100.5 -87.5t-114.5 -29.5q-114 0 -188 93t-74 231v651zM346 1380h295l150 -294h-191l-106 153l-104 -153h-189z" />
<glyph unicode="&#xfc;" horiz-adv-x="981" d="M101 953h316v-590q0 -54 15.5 -81.5t45.5 -27.5q35 0 58.5 31.5t23.5 77.5v590h322v-953h-274l-30 95q-47 -58 -100.5 -87.5t-114.5 -29.5q-114 0 -188 93t-74 231v651zM306 1380q61 0 104 -43t43 -103t-43 -103t-104 -43q-60 0 -103 42.5t-43 103.5t43 103.5t103 42.5z M685 1380q59 0 103.5 -42t44.5 -106q0 -60 -43.5 -103.5t-104.5 -43.5t-104.5 43.5t-43.5 103.5q0 62 43.5 105t104.5 43z" />
<glyph unicode="&#xfd;" horiz-adv-x="875" d="M14 953h339l93 -634l87 634h328l-255 -953q-60 -222 -105 -302t-114.5 -122t-153.5 -42q-83 0 -168 40v244q47 -30 85 -30q59 0 85 47.5t49 147.5zM431 1382h253l-210 -294h-189z" />
<glyph unicode="&#xfe;" horiz-adv-x="1003" d="M98 1395h314v-537q48 59 100.5 88t109.5 29q145 0 235 -143.5t90 -333.5q0 -202 -101.5 -361t-258.5 -159q-49 0 -86.5 21t-88.5 80v-523h-314v1839zM412 299q20 -26 42 -39t45 -13q56 0 89.5 65.5t33.5 172.5q0 103 -29.5 160.5t-80.5 57.5q-50 0 -75 -44.5t-25 -134.5 v-225z" />
<glyph unicode="&#xff;" horiz-adv-x="875" d="M14 953h339l93 -634l87 634h328l-255 -953q-60 -222 -105 -302t-114.5 -122t-153.5 -42q-83 0 -168 40v244q47 -30 85 -30q59 0 85 47.5t49 147.5zM248 1380q61 0 104 -43t43 -103t-43 -103t-104 -43q-60 0 -103 42.5t-43 103.5t43 103.5t103 42.5zM627 1380 q59 0 103.5 -42t44.5 -106q0 -60 -43.5 -103.5t-104.5 -43.5t-104.5 43.5t-43.5 103.5q0 62 43.5 105t104.5 43z" />
<glyph unicode="&#x131;" horiz-adv-x="533" d="M108 953h317v-953h-317v953z" />
<glyph unicode="&#x152;" horiz-adv-x="1621" d="M756 64q-51 -43 -107 -64.5t-117 -21.5q-218 0 -347 209t-129 506q0 213 63 375.5t169.5 256t248.5 93.5q63 0 118 -22t101 -67v66h797v-281h-468v-256h438v-274h-438v-299h468v-285h-797v64zM577 1123q-96 0 -148.5 -117.5t-52.5 -314.5q0 -196 51 -308t140 -112 q90 0 141 115.5t51 315.5q0 201 -51 311t-131 110z" />
<glyph unicode="&#x153;" horiz-adv-x="1493" d="M768 869q124 106 263 106q182 0 290.5 -127t108.5 -345v-67h-507q10 -85 66 -138t138 -53q112 0 266 135v-297q-190 -105 -348 -105q-162 0 -277 112q-58 -56 -127.5 -84t-150.5 -28q-200 0 -317 138.5t-117 354.5q0 215 115.5 359.5t319.5 144.5q83 0 152.5 -26.5 t124.5 -79.5zM1148 608v25q0 72 -33 116.5t-84 44.5q-115 0 -129 -186h246zM615 467q0 131 -29 196.5t-87 65.5q-60 0 -90 -63.5t-30 -191.5q0 -124 30 -186.5t89 -62.5t88 60.5t29 181.5z" />
<glyph unicode="&#x178;" horiz-adv-x="1024" d="M24 1395h367l119 -442l117 442h372l-329 -756v-639h-326v639zM328 1785q61 0 104 -43t43 -103t-43 -103t-104 -43q-60 0 -103 42.5t-43 103.5t43 103.5t103 42.5zM707 1785q59 0 103.5 -42t44.5 -106q0 -60 -43.5 -103.5t-104.5 -43.5t-104.5 43.5t-43.5 103.5 q0 62 43.5 105t104.5 43z" />
<glyph unicode="&#x2c6;" horiz-adv-x="683" d="M191 1380h295l150 -294h-191l-106 153l-104 -153h-189z" />
<glyph unicode="&#x2da;" horiz-adv-x="683" d="M342 1403q69 0 118.5 -49.5t49.5 -118.5q0 -70 -49.5 -119.5t-118.5 -49.5q-70 0 -119.5 49.5t-49.5 119.5q0 69 49.5 118.5t119.5 49.5zM342 1301q-25 0 -44 -18.5t-19 -45.5q0 -26 18.5 -44.5t44.5 -18.5t45 18.5t19 44.5q0 27 -19 45.5t-45 18.5z" />
<glyph unicode="&#x2dc;" horiz-adv-x="683" d="M667 1365v-34q0 -96 -53 -163t-145 -67q-71 0 -170 74q-43 32 -65 32q-25 0 -38 -23t-13 -69h-167v31q0 108 54.5 170.5t136.5 62.5q79 0 172 -71q47 -35 69 -35q25 0 37 19t12 56v17h170z" />
<glyph unicode="&#x2000;" horiz-adv-x="894" />
<glyph unicode="&#x2001;" horiz-adv-x="1788" />
<glyph unicode="&#x2002;" horiz-adv-x="894" />
<glyph unicode="&#x2003;" horiz-adv-x="1788" />
<glyph unicode="&#x2004;" horiz-adv-x="596" />
<glyph unicode="&#x2005;" horiz-adv-x="447" />
<glyph unicode="&#x2006;" horiz-adv-x="298" />
<glyph unicode="&#x2007;" horiz-adv-x="298" />
<glyph unicode="&#x2008;" horiz-adv-x="223" />
<glyph unicode="&#x2009;" horiz-adv-x="357" />
<glyph unicode="&#x200a;" horiz-adv-x="99" />
<glyph unicode="&#x2010;" horiz-adv-x="768" d="M121 634h527v-315h-527v315z" />
<glyph unicode="&#x2011;" horiz-adv-x="768" d="M121 634h527v-315h-527v315z" />
<glyph unicode="&#x2012;" horiz-adv-x="768" d="M121 634h527v-315h-527v315z" />
<glyph unicode="&#x2013;" horiz-adv-x="1024" d="M-9 604h1043v-183h-1043v183z" />
<glyph unicode="&#x2014;" horiz-adv-x="2048" d="M-10 604h2067v-183h-2067v183z" />
<glyph unicode="&#x2018;" horiz-adv-x="597" d="M278 1395h137q-80 -213 -98 -389q145 -57 145 -188q0 -88 -52.5 -137.5t-122.5 -49.5q-88 0 -136.5 66t-48.5 157q0 205 176 541z" />
<glyph unicode="&#x2019;" horiz-adv-x="597" d="M320 653h-137q85 241 97 390q-144 56 -144 188q0 87 52 137t123 50q82 0 133.5 -63.5t51.5 -158.5q0 -211 -176 -543z" />
<glyph unicode="&#x201a;" horiz-adv-x="597" d="M320 -489h-137q84 229 97 389q-144 57 -144 189q0 87 52 136.5t123 49.5q85 0 135 -64.5t50 -165.5q0 -197 -176 -534z" />
<glyph unicode="&#x201c;" horiz-adv-x="1088" d="M769 1395h137q-84 -227 -98 -389q144 -56 144 -189q0 -86 -52 -136t-122 -50q-82 0 -133.5 62.5t-51.5 163.5q0 204 176 538zM278 1395h137q-83 -227 -98 -389q145 -56 145 -189q0 -83 -50.5 -134.5t-124.5 -51.5q-81 0 -133 62.5t-52 163.5q0 203 176 538z" />
<glyph unicode="&#x201d;" horiz-adv-x="1088" d="M320 653h-137q84 230 97 390q-144 56 -144 188q0 84 50.5 135.5t124.5 51.5q86 0 135.5 -65.5t49.5 -162.5q0 -200 -176 -537zM811 653h-138q85 230 98 390q-144 56 -144 188q0 87 52 137t122 50q87 0 136 -65.5t49 -162.5q0 -200 -175 -537z" />
<glyph unicode="&#x201e;" horiz-adv-x="1088" d="M810 -485h-137q74 196 98 389q-144 56 -144 188q0 84 50.5 135.5t124.5 51.5q86 0 135 -65.5t49 -161.5q0 -201 -176 -537zM320 -485h-138q74 196 98 389q-144 56 -144 188q0 84 50.5 135.5t124.5 51.5q86 0 135.5 -65.5t49.5 -161.5q0 -201 -176 -537z" />
<glyph unicode="&#x2022;" horiz-adv-x="725" d="M658 732q0 -133 -88 -218.5t-207 -85.5q-123 0 -209.5 87t-86.5 209t87 208.5t208 86.5q130 0 213 -90t83 -197z" />
<glyph unicode="&#x2026;" horiz-adv-x="2048" d="M339 293q72 0 117 -46.5t45 -110.5q0 -66 -45.5 -112t-110.5 -46q-63 0 -109 46t-46 111q0 67 47 112.5t102 45.5zM1016 293q72 0 117 -46.5t45 -111.5t-45.5 -111t-109.5 -46t-110 46t-46 111q0 68 47 113t102 45zM1696 293q73 0 117.5 -47t44.5 -110q0 -66 -45.5 -112 t-110.5 -46q-63 0 -109 46t-46 111q0 67 47 112.5t102 45.5z" />
<glyph unicode="&#x202f;" horiz-adv-x="357" />
<glyph unicode="&#x2039;" horiz-adv-x="448" d="M168 792h211l-107 -316l107 -319h-211l-106 319z" />
<glyph unicode="&#x203a;" horiz-adv-x="448" d="M279 157h-210l107 316l-107 319h210l107 -319z" />
<glyph unicode="&#x205f;" horiz-adv-x="447" />
<glyph unicode="&#x20ac;" horiz-adv-x="1045" d="M939 31q-117 -55 -261 -55q-207 0 -341 137q-115 116 -163 312h-137l30 157h82q-3 38 -3 80q0 34 3 74h-112l30 157h107q50 202 170 323q140 141 351 141q134 0 244 -49v-306q-76 75 -203 75q-170 0 -237 -184h400l-30 -157h-403q-4 -42 -4 -84q0 -32 4 -70h383l-30 -157 h-315q69 -165 227 -165q116 0 208 72v-301z" />
<glyph unicode="&#x2122;" horiz-adv-x="2048" d="M457 576v677h-253v142h665v-142h-246v-677h-166zM968 576v819h259l149 -564l150 564h259v-819h-158v653l-177 -653h-150l-176 653v-653h-156z" />
<glyph unicode="&#xe000;" horiz-adv-x="955" d="M0 955h955v-955h-955v955z" />
<glyph unicode="&#xfb01;" horiz-adv-x="1130" d="M865 1418q65 0 118 -47t53 -122q0 -71 -50.5 -120t-120.5 -49q-72 0 -121.5 50.5t-49.5 119.5q0 70 51 119t120 49zM705 953h317v-953h-317v953zM137 953v162q0 144 84 223.5t219 79.5q74 0 164 -34v-258q-39 24 -70 24q-40 0 -60 -23.5t-20 -71.5v-102h150v-233h-150 v-720h-317v720h-118v233h118z" />
<glyph unicode="&#xfb02;" horiz-adv-x="1130" d="M704 1395h318v-1395h-318v1395zM137 953v162q0 144 84 223.5t219 79.5q74 0 164 -34v-258q-39 24 -70 24q-40 0 -60 -23.5t-20 -71.5v-102h150v-233h-150v-720h-317v720h-118v233h118z" />
<glyph unicode="&#xfb03;" horiz-adv-x="1727" d="M1462 1418q65 0 118 -47t53 -122q0 -71 -50.5 -120t-120.5 -49q-72 0 -121.5 50.5t-49.5 119.5q0 70 51 119t120 49zM1302 953h317v-953h-317v953zM734 953v162q0 144 84 223.5t219 79.5q74 0 164 -34v-258q-39 24 -70 24q-40 0 -60 -23.5t-20 -71.5v-102h150v-233h-150 v-720h-317v720h-118v233h118zM137 953v162q0 144 84 223.5t219 79.5q74 0 164 -34v-258q-39 24 -70 24q-40 0 -60 -23.5t-20 -71.5v-102h150v-233h-150v-720h-317v720h-118v233h118z" />
<glyph unicode="&#xfb04;" horiz-adv-x="1727" d="M1301 1395h318v-1395h-318v1395zM734 953v162q0 144 84 223.5t219 79.5q74 0 164 -34v-258q-39 24 -70 24q-40 0 -60 -23.5t-20 -71.5v-102h150v-233h-150v-720h-317v720h-118v233h118zM137 953v162q0 144 84 223.5t219 79.5q74 0 164 -34v-258q-39 24 -70 24 q-40 0 -60 -23.5t-20 -71.5v-102h150v-233h-150v-720h-317v720h-118v233h118z" />
</font>
</defs>
</svg>
