<?xml version="1.0" standalone="no"?>
<!DOCTYPE svg PUBLIC "-//W3C//DTD SVG 1.1//EN" "http://www.w3.org/Graphics/SVG/1.1/DTD/svg11.dtd" >
<svg xmlns="http://www.w3.org/2000/svg">
<metadata>
This is a custom SVG webfont generated by Font Squirrel.
Copyright   : Copyright c  M Klein     July 2004  March 2005
</metadata>
<defs>
<font id="WinterthurCondensedItalic" horiz-adv-x="868" >
<font-face units-per-em="2048" ascent="1638" descent="-410" />
<missing-glyph horiz-adv-x="555" />
<glyph unicode=" "  horiz-adv-x="555" />
<glyph unicode="&#x09;" horiz-adv-x="555" />
<glyph unicode="&#xa0;" horiz-adv-x="555" />
<glyph unicode="!" horiz-adv-x="395" d="M-27 0h119l29 129h-119zM80 459h102l260 1093h-157z" />
<glyph unicode="&#x22;" horiz-adv-x="651" d="M86 1059h88l141 555h-137zM362 1061h89l141 553h-133z" />
<glyph unicode="#" d="M-78 0h94l166 432h242l-170 -432h96l164 422h240l24 110h-225l188 498h142l18 86h-123l170 436h-94l-168 -436h-240l166 436h-92l-168 -436h-241l-19 -90h223l-190 -500h-139l-19 -92h123zM221 528l191 496h239l-192 -496h-238z" />
<glyph unicode="$" d="M6 332q-27 -117 14 -219q39 -100 205 -113l-24 -121h108l25 121q98 20 166 82q68 63 114 154q47 92 68 186q16 80 10 145q-6 72 -45 125q-18 27 -40.5 51.5t-51.5 40.5l-47 29l133 631q45 -12 68 -49q18 -33 8 -88l-2 -11h127l2 9q14 80 -17 155q-33 74 -165 88l26 131 h-100l-27 -131q-102 -18 -170 -73q-63 -51 -115 -142q-23 -41 -40 -88t-27 -98q-29 -133 -2 -223q12 -47 47 -91.5t94 -84.5l33 -23l-131 -619q-104 18 -123 78q-10 29 -10 64q0 37 10 84l2 10h-121zM324 1012q-12 61 4 139q10 53 27.5 98t45.5 86q49 80 138 105l-119 -557 l-25 16q-33 23 -48 53.5t-23 59.5zM356 117l117 545l27 -21q27 -23 42 -48.5t21 -53.5q8 -29 6 -65t-12 -77q-12 -61 -41 -127q-27 -59 -63 -102q-36 -39 -97 -51z" />
<glyph unicode="%" horiz-adv-x="1179" d="M8 0h125l1020 1552h-111zM102 770q39 -123 131 -123t183 123q88 119 135 330q43 207 6 330q-41 123 -131 122q-94 0 -182 -122q-90 -125 -133 -330q-46 -207 -9 -330zM193 840q-8 98 22 258q16 78 36.5 141.5t49.5 116.5q51 100 105 100q53 0 61 -100q12 -100 -23 -258 q-16 -78 -37.5 -142.5t-48.5 -115.5q-55 -100 -106 -101q-51 1 -59 101zM621 123q37 -123 131 -123t184 123q90 121 133 330q45 207 8 331q-37 121 -133 121q-94 0 -182 -123t-135 -329q-43 -209 -6 -330zM711 195q-6 51 0 115.5t22 142.5q35 156 86 256q55 102 107 102 q49 0 61 -102q10 -102 -24 -256q-31 -154 -84 -258q-57 -100 -107 -101q-51 1 -61 101z" />
<glyph unicode="&#x26;" horiz-adv-x="948" d="M-27 184q8 -55 26.5 -97t47.5 -73q55 -61 154 -61q39 0 75.5 11t71.5 32q76 43 156 133l14 -45q8 -23 14.5 -44.5t16.5 -39.5h164q-35 78 -58.5 138.5t-38.5 107.5q162 223 232 551l6 22h-117l-10 -47q-35 -156 -63 -231q-31 -78 -74 -144q-33 115 -61.5 245t-53.5 278 q51 37 95 84t85 104q78 113 103 229q25 104 -17 183q-37 78 -135 77q-61 0 -125 -41q-59 -41 -108 -124q-45 -78 -64 -162q-4 -16 -6 -34.5t-4 -39.5q-4 -37 0 -82q2 -23 7 -61.5t16 -94.5q2 -4 2 -10t2 -16q-123 -86 -217 -221q-92 -135 -127 -293q-27 -121 -9 -234z M86 320.5q2 44.5 12 93.5q14 59 36 116.5t56 114.5q33 57 72 102.5t84 79.5q10 -88 26.5 -174t37.5 -176q20 -88 36.5 -153.5t32.5 -110.5q-47 -51 -85 -84t-64 -43q-47 -23 -88 -23q-51 0 -97 46q-43 43 -55 127q-6 40 -4 84.5zM434 1184v35q0 18 2 36q0 18 2 35t6 33 q12 57 52 119q39 57 88 57q27 0 47 -20q23 -20 28 -60q6 -37 -4 -76q-12 -63 -65 -151q-53 -90 -131 -154l-6 31q-17 84 -19 115z" />
<glyph unicode="'" horiz-adv-x="393" d="M90 1061h96l158 553h-176z" />
<glyph unicode="(" horiz-adv-x="581" d="M72 272q-6 -188 26 -358q33 -172 92 -287h91q-35 92 -57.5 175t-30.5 157q-10 76 -11 156q0 82 6 170q4 90 16.5 177t31.5 175q18 86 43.5 173t56.5 177q63 178 141 326q39 74 96.5 156.5t131.5 175.5h-82q-53 -57 -108.5 -128t-108.5 -159q-109 -176 -179 -359 q-74 -184 -110 -362q-18 -92 -29.5 -182.5t-15.5 -182.5z" />
<glyph unicode=")" horiz-adv-x="581" d="M-129 -373h90q53 57 107.5 128t107.5 159q109 172 180 358q35 92 62.5 182.5t46.5 182.5q18 90 29.5 180t15.5 182.5t-4 181.5t-24.5 177t-41 158.5t-53.5 128.5h-82q70 -184 84 -332q8 -74 9 -155t-5 -171q-4 -90 -16 -177t-31 -173q-18 -88 -44 -175t-56 -177 q-33 -88 -68 -169t-76 -157q-41 -74 -97 -157t-134 -175z" />
<glyph unicode="*" horiz-adv-x="661" d="M61 1237l207 -41l-174 -192l70 -52l149 181l68 -181l94 54l-92 190l219 39l4 104l-221 -57l55 213h-102l-37 -219l-201 59z" />
<glyph unicode="+" d="M70 510h305l-109 -510h99l108 510h307l21 98h-307l108 508h-98l-109 -508h-305z" />
<glyph unicode="," horiz-adv-x="395" d="M59 -354q33 18 59.5 40.5t51.5 51.5q47 59 80 125q29 63 57 196l31 146h-162l-43 -205h80q-12 -59 -31 -104q-10 -25 -20 -46.5t-23 -44.5q-29 -43 -61 -73z" />
<glyph unicode="-" horiz-adv-x="493" d="M39 637h395l21 98h-396z" />
<glyph unicode="." horiz-adv-x="395" d="M33 0h168l45 209h-168z" />
<glyph unicode="/" horiz-adv-x="700" d="M-129 8h115l843 1589h-108z" />
<glyph unicode="0" d="M47 174q51 -221 213 -221q160 0 307.5 221t227.5 602q41 193 48 341.5t-22 258.5q-53 221 -213 221t-307 -221t-227 -600q-80 -385 -27 -602zM147 279q-10 215 50 497q57 276 163 498q102 219 228 219q125 0 137 -219q4 -111 -9.5 -233.5t-41.5 -264.5 q-59 -287 -162 -497q-100 -217 -229 -218q-124 1 -136 218z" />
<glyph unicode="1" d="M-4 0h637l24 117h-514h-123zM274 0h121l330 1552h-109l-243 -153l-25 -121l223 123z" />
<glyph unicode="2" d="M-57 0h637l24 117h-514l10 43q53 256 342 540l60 60q27 23 60.5 55.5t76.5 77.5q41 45 72.5 87t50.5 83q39 82 55 164q33 152 -12 262q-49 109 -213 108q-90 0 -158 -36q-33 -16 -62.5 -41t-52.5 -54q-47 -61 -61 -127l-10 -49h114l11 49q12 59 61 107q51 47 131 47 q90 0 121 -76q33 -74 10 -174q-10 -47 -28.5 -92t-46.5 -90q-27 -43 -80.5 -110.5t-143.5 -153.5l-86 -80q-74 -70 -130 -142.5t-97 -144.5q-82 -145 -107 -270z" />
<glyph unicode="3" d="M-6 223q-25 -100 26 -186q53 -84 199 -84q168 0 285 153q115 154 153 340q35 162 -2 267q-37 106 -145 159q84 37 137 93q49 55 88 129q18 37 30.5 75.5t22.5 81.5q35 156 -18 250q-53 96 -195 96q-152 0 -231 -81q-84 -86 -104 -185l-9 -39h113l8 39q10 47 39 86 q29 41 70 58q43 18 88 18q76 0 110 -66q33 -70 9 -182q-18 -86 -64 -164q-47 -76 -104 -120q-59 -49 -144 -50h-73l-23 -110h59q147 0 197 -111q51 -111 16 -270q-10 -53 -26.5 -100.5t-38.5 -92.5q-43 -90 -98 -129q-59 -39 -117 -39q-78 0 -119 41q-43 41 -24 121l8 41 h-115z" />
<glyph unicode="4" d="M12 502h475l-108 -502h117l108 502h139l21 98h-139l202 952h-116l-672 -923zM156 598l495 696l-147 -696h-348z" />
<glyph unicode="5" d="M16 209q-25 -109 39 -182q59 -74 191 -74q166 0 276 153q113 160 152 353q33 150 12 254q-20 102 -92 161.5t-223 59.5h-31l106 504h402l24 114h-505l-156 -729h90q201 0 244 -112q39 -111 6 -277q-31 -143 -107 -262q-78 -117 -176 -117q-78 0 -114 43q-35 41 -23 109 l10 41h-116z" />
<glyph unicode="6" d="M59 315q6 -178 72 -272q66 -90 164 -90q86 0 168 63q86 66 149 177q61 113 93 251q41 203 -5 338q-49 139 -174 140q-47 0 -94 -21q-23 -10 -47.5 -23.5t-49 -36t-52 -51t-58.5 -69.5l13 57q23 98 50 190.5t62 184.5q35 90 73 154.5t75 105.5q76 80 155 80q61 0 88 -39 q27 -37 17 -84l-8 -39h116l8 37q18 88 -30 160q-49 70 -174 69q-184 0 -330 -225q-147 -227 -227 -606q-29 -135 -42.5 -247t-11.5 -204zM178 246q-4 47 0 94t15 98q33 154 110 264q80 111 168 111q82 0 115 -96q33 -98 0 -264q-37 -170 -115 -281q-74 -111 -154 -111 q-29 0 -52 10.5t-42 34.5q-20 25 -30.5 59t-14.5 81z" />
<glyph unicode="7" d="M76 0h127l16 78q20 98 68 233q23 68 71 167.5t121 230.5q72 131 139.5 241.5t131.5 202.5l120 178q4 4 11.5 16.5t23.5 34.5l37 170h-668l-24 -114h569l-35 -52l-147 -221q-82 -123 -180.5 -276.5t-163 -272t-98.5 -204.5q-68 -170 -105 -342z" />
<glyph unicode="8" d="M11 302q-3 -58 7 -118q14 -113 76 -174q55 -57 166 -57t193 57q41 29 76.5 72t70.5 102q31 57 54.5 116.5t35.5 119.5q27 127 2 246q-29 117 -112 184q94 57 153 145q61 90 82 199q12 55 15.5 107.5t-7.5 99.5q-18 100 -78 147q-59 49 -139 49q-76 0 -157 -49 q-78 -47 -137.5 -145t-80.5 -207q-25 -111 -2 -199q20 -86 90 -145q-119 -72 -190 -186q-74 -113 -102 -246q-13 -60 -16 -118zM128 329q3 44 13 91q20 94 68 186q25 47 53.5 81t56.5 58q57 49 117 50q57 0 98 -49.5t50 -139.5q12 -88 -11 -186q-20 -90 -67 -180 q-43 -88 -105 -134q-61 -43 -120 -43t-99 43q-43 43 -53 134q-4 45 -1 89zM348 1202q14 66 39 117t59 90q70 80 138 80q70 0 106 -80q35 -80 8 -207q-25 -117 -92 -203q-68 -88 -145 -88q-76 0 -107 88q-31 86 -6 203z" />
<glyph unicode="9" d="M-2 184q-20 -94 27 -161q51 -70 174 -70q184 0 329 225q147 227 228 608q59 270 53 449q-4 92 -22.5 159.5t-51.5 112.5q-63 90 -164 90q-84 0 -165 -63q-43 -33 -79 -77t-69 -99q-63 -111 -94 -254q-39 -195 4 -336q45 -139 174 -139q47 0 94 18q49 23 96 62 q51 43 113 125l-14 -60q-25 -98 -50.5 -190t-62.5 -185q-74 -182 -149 -260q-78 -80 -152 -80q-68 0 -92 39q-25 41 -16 84l10 41h-113zM283 834q-35 100 2 266q16 84 44.5 152.5t67.5 125.5q74 113 152 113q57 0 94 -47q20 -23 30.5 -57.5t14.5 -82t0 -94.5t-14 -98 q-35 -154 -111 -264q-80 -111 -166 -111q-79 1 -114 97z" />
<glyph unicode=":" horiz-adv-x="395" d="M-6 0h168l45 209h-168zM186 909h168l45 207h-168z" />
<glyph unicode=";" horiz-adv-x="395" d="M-41 -354q63 39 109 92q49 59 79 125q16 35 32 83t30 113l31 146h-164l-45 -205h82q-6 -29 -13.5 -55.5t-15.5 -48.5q-18 -47 -45 -91q-25 -43 -62 -73zM225 909h168l43 207h-168z" />
<glyph unicode="&#x3c;" d="M100 555l555 -520l25 115l-438 403l614 416l23 112z" />
<glyph unicode="=" d="M33 338h710l21 98h-711zM106 680h711l21 98h-711z" />
<glyph unicode="&#x3e;" d="M-10 35l780 530l-559 516l-23 -104l439 -410l-613 -417z" />
<glyph unicode="?" horiz-adv-x="741" d="M84 0h119l26 129h-118zM180 455h121l29 129q16 72 34.5 125t38.5 88q39 63 97 129l57 63q45 51 76 93t45 77q16 35 25.5 64.5t15.5 52.5q16 86 -2 158q-18 76 -76 120q-53 43 -129 43q-74 0 -141 -32q-68 -35 -111 -95q-45 -55 -57 -114l-2 -8h118l3 8q14 72 55 106 q39 33 98 33q74 0 111 -55q35 -59 16 -142q-12 -53 -43 -100q-31 -53 -98 -135l-66 -84q-49 -61 -106 -166q-27 -53 -49.5 -118.5t-38.5 -145.5z" />
<glyph unicode="@" horiz-adv-x="1296" d="M131 284.5q-8 -104.5 2 -202.5q18 -195 113 -299q92 -104 227 -105q123 0 260 97l25 116q-150 -125 -269 -124q-100 0 -184 90q-84 92 -92 276q-4 92 4 187.5t29 193.5q23 100 53.5 192.5t75.5 178.5q88 172 205 260q115 88 235 88q111 0 186 -78q74 -74 97 -223 q10 -72 6 -154t-25 -174q-37 -164 -98 -260q-66 -96 -119 -96q-41 0 -53 47q-8 25 -3 71t19 115l93 434h-125q-119 0 -193 -49q-70 -45 -131 -153q-59 -104 -82 -217q-10 -43 -12 -82t0 -76q6 -68 41 -113q29 -41 78 -41q47 0 98 45q53 45 106 123q-12 -100 25 -143 q39 -43 94 -43q66 0 137 59q70 61 125 164q53 102 84 244q39 190 14.5 350t-108.5 250t-231 90q-160 0 -291 -104q-135 -104 -236 -297q-100 -190 -149 -420q-23 -113 -31 -217.5zM483 336q-16 43 6 147q10 47 23.5 88t30.5 78q29 70 78 125q29 29 57 41q31 12 82 12h41 l-66 -309q-88 -141 -133 -184q-41 -39 -76 -39q-27 0 -43 41z" />
<glyph unicode="A" horiz-adv-x="948" d="M-145 0h120l209 442h426l13 -442h139l-43 1552h-129zM240 559l344 731l18 -731h-362z" />
<glyph unicode="B" horiz-adv-x="829" d="M-70 0h293q162 0 242 57q82 59 135 152q57 94 80 205q14 60 14 116q0 63 -18 119q-35 104 -146 148q129 86 193 192q66 106 90 219q11 52 11 102q0 39 -7 76q-16 84 -63 123q-53 43 -232 43h-260zM82 102l137 641h96q125 0 177 -51q25 -27 41 -57.5t24 -71.5q5 -32 5 -66 q0 -51 -11 -108q-12 -59 -35.5 -109.5t-56.5 -91.5q-66 -86 -195 -86h-182zM240 846l129 604h166q115 0 143 -72q18 -43 18 -96q0 -36 -8 -76q-10 -45 -26.5 -88t-39 -86t-49 -75.5t-55.5 -55t-68.5 -39t-87.5 -16.5h-122z" />
<glyph unicode="C" horiz-adv-x="849" d="M49 160q74 -207 262 -207q47 0 88 8t80 29q74 35 135 119q55 80 72 159l2 11h-113l-2 -11q-14 -80 -73 -147q-55 -66 -162 -66q-150 0 -182 203q-10 63 -10 137q0 163 47 381q68 313 184.5 516t267.5 203q59 0 96 -25q37 -29 50 -79q6 -25 6 -51.5t-6 -55.5l-3 -8h117 l2 6q7 32 7 64q0 48 -15 96q-23 82 -84 119q-59 39 -153 38q-190 0 -351 -206q-164 -211 -250 -617q-46 -222 -46 -383q0 -138 34 -233z" />
<glyph unicode="D" horiz-adv-x="913" d="M-72 0h291q188 0 303 100q115 98 199 275q84 172 135 407q40 197 40 346q0 42 -3 80q-16 176 -88 258q-78 86 -273 86h-272zM84 123l283 1323h149q147 0 198.5 -76t53.5 -231q0 -152 -47 -375q-45 -215 -115 -363q-68 -145 -151 -211q-84 -68 -217 -67h-154z" />
<glyph unicode="E" horiz-adv-x="749" d="M-72 0h592l25 115h-463l137 641h375l22 108h-374l123 574h428l24 114h-557z" />
<glyph unicode="F" horiz-adv-x="720" d="M-72 0h129l154 719h375l22 108h-375l132 611h428l24 114h-557z" />
<glyph unicode="G" horiz-adv-x="878" d="M16 311q18 -176 88 -266q74 -92 222 -92q141 0 323 117l142 667h-336l-21 -96h215l-108 -516q-125 -63 -207 -64q-139 0 -176 195q-13 64 -13 145q0 157 48 379q72 336 186 525q117 190 260 190q57 0 92 -27q33 -23 53 -71q9 -27 10 -55q0 -21 -6 -44l-2 -10h117l2 8 q5 26 5 54q0 47 -15 98q-25 76 -90.5 112.5t-153.5 36.5q-127 0 -241 -96q-113 -94 -201 -266q-43 -86 -82 -205t-72 -272q-43 -203 -43 -355q0 -49 4 -92z" />
<glyph unicode="H" horiz-adv-x="899" d="M-72 0h129l158 733h453l-158 -733h129l332 1552h-129l-154 -718h-452l153 718h-129z" />
<glyph unicode="I" horiz-adv-x="317" d="M-72 0h129l332 1552h-129z" />
<glyph unicode="J" horiz-adv-x="641" d="M-92 201q-7 -30 -7 -58q0 -59 29 -112q43 -78 187 -78q86 0 149 45q59 45 113 137q53 90 108 348l228 1069h-125l-236 -1106q-23 -106 -41 -173.5t-32 -98.5q-27 -59 -68 -90q-43 -31 -82 -31q-37 0 -63 19q-29 14 -35 51q-3 15 -3 31q0 21 5 45l2 10h-127z" />
<glyph unicode="K" horiz-adv-x="864" d="M-39 0h129l172 809l289 -809h162l-297 823l563 729h-145l-572 -741l158 741h-129z" />
<glyph unicode="L" horiz-adv-x="759" d="M-74 0h647l25 115h-518l307 1437h-129z" />
<glyph unicode="M" horiz-adv-x="1026" d="M-72 0h111l199 934l51 254h2l2 -256l26 -752h150l319 746l125 286l-61 -280l-199 -932h115l332 1552h-125l-543 -1216l-47 1216h-125z" />
<glyph unicode="N" horiz-adv-x="923" d="M-74 0h121l234 1098l24 125l12 -115l218 -1108h129l331 1552h-118l-236 -1101l-23 -121l-16 123l-217 1099h-127z" />
<glyph unicode="O" horiz-adv-x="958" d="M49 168q70 -215 256 -215q182 0 346 215q80 106 142.5 258t103.5 350q45 213 45 374q0 137 -33 234q-70 213 -256 213q-184 0 -346 -213q-80 -106 -142.5 -257.5t-103.5 -350.5q-45 -214 -45 -374q0 -137 33 -234zM158 256q-11 62 -11 139q0 159 46 381q68 328 186 520 q119 197 254 197t170 -197q11 -64 11 -141q0 -160 -46 -379q-68 -322 -186 -520q-121 -197 -254 -197t-170 197z" />
<glyph unicode="P" horiz-adv-x="759" d="M-72 0h129l138 637h120q186 0 310 143q127 145 170 357q19 87 19 156q0 35 -5 65q-12 96 -68 145q-53 49 -206 49h-275zM217 743l150 707h149q127 0 156 -86q11 -38 11 -87q0 -61 -17 -140q-33 -158 -113 -279q-80 -115 -250 -115h-86z" />
<glyph unicode="Q" horiz-adv-x="958" d="M84 168q70 -215 256 -215h14q8 0 19 2q-63 -90 -82 -178q-4 -20 -4 -38q0 -42 20 -71q31 -43 90 -43q35 0 88 33l13 61q-29 -20 -56 -20q-41 0 -53 25q-10 29 -4 55q2 10 20.5 46t39 74t36.5 67l17 30h2q49 27 94 70t92 102q80 106 142.5 258t103.5 350q45 213 45 374 q0 137 -33 234q-70 213 -256 213q-184 0 -346 -213q-80 -106 -142.5 -257.5t-103.5 -350.5q-45 -214 -45 -374q0 -137 33 -234zM193 256q-11 62 -11 139q0 159 45 381q68 328 187 520q119 197 254 197t170 -197q11 -64 10 -141q0 -160 -45 -379q-68 -322 -187 -520 q-121 -197 -254 -197q-132 0 -169 197z" />
<glyph unicode="R" horiz-adv-x="790" d="M-33 0h131l146 684h129q55 -117 73 -272l50 -412h137l-60 451q-6 49 -18 104q-6 29 -11 48.5t-9 33.5q-12 25 -39 51q98 55 153.5 123t93.5 152q23 41 37.5 85t24.5 91q15 79 15 149q0 32 -3 62q-12 98 -57 149q-47 53 -158 53h-303zM268 801l138 649h135q90 0 116.5 -45 t32.5 -111q1 -13 1 -26q0 -55 -13 -119q-23 -96 -62 -178q-39 -80 -92 -127q-53 -43 -131 -43h-125z" />
<glyph unicode="S" horiz-adv-x="790" d="M-31 285q-9 -47 -8 -89q0 -47 10 -90q23 -84 84 -118q70 -35 176 -35q115 0 195 55q82 55 143 162q61 109 86 223q14 62 14.5 119.5t-14.5 110.5q-14 53 -52 102t-97 102l-51 45q-39 35 -64.5 63t-40.5 48q-29 41 -39 104q-2 19 -2 38q0 14 1 29q3 34 9 69q12 53 33 101 t54 89q63 82 159 82q47 0 80 -16q33 -12 49 -52q6 -23 6 -43q0 -16 -4 -30l-2 -11h129l2 9q6 31 7 59q0 62 -31 113q-49 74 -203 73q-166 0 -270 -118q-104 -121 -142 -291q-15 -68 -15 -127q0 -27 3 -51q10 -82 45 -144q20 -33 53 -64.5t76 -66.5l43 -37q86 -74 119 -143 q20 -43 20 -100q0 -40 -10 -86q-31 -141 -106 -226q-74 -86 -160 -86q-96 0 -141 49q-30 33 -30 97q0 36 9 82l2 10h-123z" />
<glyph unicode="T" horiz-adv-x="835" d="M176 1452h336l-309 -1452h127l309 1452h332l20 100h-794z" />
<glyph unicode="U" d="M-2 162q18 -104 96 -158q76 -51 182 -51q113 0 201 63q86 63 152 174q63 115 121 383l208 979h-116l-205 -960q-59 -281 -105 -367q-47 -92 -104 -129q-59 -39 -129 -39q-74 0 -121 39q-47 37 -59 119q-2 14 -2 32q0 87 41 271l219 1034h-127l-217 -1026 q-40 -188 -41 -296q0 -39 6 -68z" />
<glyph unicode="V" horiz-adv-x="948" d="M186 1552l43 -1552h131l734 1552h-119l-613 -1298l-36 1298h-140z" />
<glyph unicode="W" horiz-adv-x="1232" d="M106 0h134l419 1100l72 225l-18 -213l-58 -1112h133l562 1552h-111l-399 -1099l-66 -209h-2l21 217l57 1091h-125l-414 -1093l-69 -211h-2l20 215l76 1089h-121z" />
<glyph unicode="X" horiz-adv-x="794" d="M-147 0h139l370 606l103 -606h145l-133 805l463 747h-129l-360 -583l-99 583h-141l127 -761z" />
<glyph unicode="Y" horiz-adv-x="794" d="M170 0h129l156 731l489 821h-123l-377 -624l-112 624h-150l144 -821z" />
<glyph unicode="Z" horiz-adv-x="749" d="M-117 0h643l29 135h-520l776 1251l37 166h-598l-27 -116h479l-778 -1250z" />
<glyph unicode="[" horiz-adv-x="581" d="M-68 -373h322l22 101h-213l386 1816h213l22 101h-322z" />
<glyph unicode="\" horiz-adv-x="700" d="M207 1597l176 -1587h111l-175 1587h-112z" />
<glyph unicode="]" horiz-adv-x="581" d="M-102 -373h319l430 2018h-319l-23 -101h213l-385 -1816h-213z" />
<glyph unicode="^" d="M-37 436h109l409 768l80 -768h109l-117 1110z" />
<glyph unicode="_" horiz-adv-x="716" d="M-53 -532h790l21 98h-791z" />
<glyph unicode="`" horiz-adv-x="770" d="M283 1614l112 -250h92l-90 250h-114z" />
<glyph unicode="a" horiz-adv-x="720" d="M6 270q-13 -59 -13 -107q0 -67 25 -114q43 -80 129 -80q49 0 109 31q57 29 164 147q-12 -61 -12 -147h127q2 106 18 186q14 80 31 154l94 444q27 124 27 197q0 30 -5 51q-16 63 -67 105q-53 39 -133 39t-148 -33q-70 -31 -127 -103q-53 -66 -65 -127l-4 -14h123l4 16 q14 63 65 114.5t123 51.5q61 0 96 -53q16 -29 17 -79q0 -44 -13 -103l-34 -158l-66 -18q-223 -61 -326 -152q-104 -86 -139 -248zM122 203q1 23 5 47q23 100 88 170q61 68 262 149l41 17l-26 -127q-25 -121 -70 -203q-45 -86 -106.5 -137t-108.5 -51q-31 0 -51 24 q-27 20 -33 66q-1 15 -1 30v15z" />
<glyph unicode="b" horiz-adv-x="796" d="M-82 0h121q6 23 12 51.5t17 63.5l20 84q8 -53 16.5 -90t20.5 -60q27 -43 59 -59q35 -20 82 -21q137 0 254 172q113 170 168 432q32 147 32 268q0 25 -1 50q-6 145 -60 213q-53 72 -131 72q-45 0 -90 -23q-23 -12 -44 -28.5t-44 -39.5q-43 -43 -104 -141l141 670h-117 l-270 -1276q-2 -10 -6 -26.5t-10 -43.5l-15 -57l-18 -74q-10 -41 -17.5 -74.5t-15.5 -62.5zM141 213q-6 43 -6 93q0 111 31 259q16 72 34.5 138.5t43.5 125.5q49 119 112 181q61 61 119 61q80 0 117 -110q13 -41 12 -104q0 -112 -39 -294q-53 -248 -135 -366 q-84 -123 -172 -123q-97 0 -117 139z" />
<glyph unicode="c" horiz-adv-x="710" d="M51 129q49 -160 205 -160q82 0 145 33q66 35 113 98q49 63 61 127l3 11h-109l-2 -13q-12 -59 -57 -108q-45 -45 -123 -45q-88 0 -125 116q-13 44 -14 112q0 107 34 271q29 133 65 227.5t77 153.5q86 119 176 119q74 0 100 -47q18 -34 18 -71q0 -17 -4 -35l-8 -41h113 l8 38q7 29 7 57q0 40 -15 75q-23 61 -74 94q-53 35 -131 35q-156 0 -274 -160q-59 -80 -104.5 -191.5t-74.5 -253.5q-34 -152 -33 -269q0 -99 23 -173z" />
<glyph unicode="d" horiz-adv-x="784" d="M-18 252q6 -139 59 -211q51 -72 133 -72q43 0 86 15q41 14 88 57q45 41 103 147l-39 -188h120l342 1614h-118l-142 -666q-8 53 -18 88t-21 56q-20 41 -57 61q-39 23 -82 23q-141 0 -254 -172q-115 -172 -170 -435q-32 -151 -31 -276q0 -21 1 -41zM106 182q-11 38 -11 98 q0 112 40 300q53 244 135 366.5t172 122.5q94 0 117 -139q9 -49 9 -108q0 -24 -2 -50q-5 -88 -27 -197q-31 -145 -82 -262q-49 -119 -111 -180q-61 -59 -119 -59q-86 -1 -121 108z" />
<glyph unicode="e" horiz-adv-x="749" d="M55 137q51 -168 209 -168q80 0 148 33q72 35 118 98q51 68 64 127l8 39h-108l-9 -41q-12 -55 -59 -106q-45 -47 -127 -47h-6q-105 0 -135 141q-12 58 -12 128q0 106 28 239h508l12 59q23 102 29 180q3 39 3 73t-3 62q-16 113 -68 166q-55 55 -135 56q-145 0 -276 -175 q-131 -170 -187 -438q-28 -130 -28 -238q0 -105 26 -188zM197 672q57 182 137 286q80 102 147 103q55 0 90 -45q33 -41 39 -133q2 -25 3 -51q0 -65 -15 -136l-6 -24h-395z" />
<glyph unicode="f" horiz-adv-x="509" d="M-16 0h118l224 1044h206l21 99h-205l19 90q37 172 88 221q49 47 106 47q16 0 35.5 -2t42.5 -6l23 106q-55 14 -97 15q-109 0 -192 -96q-86 -96 -135 -326l-11 -49h-102l-21 -99h103z" />
<glyph unicode="g" horiz-adv-x="794" d="M-37 -215q-5 -25 -4 -48q0 -39 12 -75q25 -61 84 -94q63 -35 150 -35q90 0 174 55q80 53 149 164q68 111 142 457l198 934h-118l-37 -176q-27 125 -72 166q-23 20 -49.5 31.5t-61.5 11.5q-90 0 -172 -70q-80 -72 -147 -211q-35 -72 -59.5 -149.5t-42.5 -163.5 q-30 -140 -30 -253q0 -95 21 -169q45 -160 174 -160q78 0 150 59q70 55 133 177l-33 -148q-47 -219 -92 -301q-47 -84 -96 -121q-53 -39 -117 -39q-82 0 -121 43q-31 30 -31 76q0 17 5 37l2 14h-109zM199 324q0 55 6 119.5t22 136.5q51 229 135 360q82 129 175 129 q80 0 114 -129q14 -54 14 -123q0 -91 -24 -207q-25 -113 -59.5 -203t-75.5 -161q-86 -143 -178 -144q-55 0 -92 58q-37 55 -37 164z" />
<glyph unicode="h" horiz-adv-x="761" d="M-78 0h119l127 592q37 168 84 264q49 96 104 145q63 53 113 54q43 0 72 -39q27 -39 26 -107q-4 -70 -37 -229l-145 -680h119l155 727q32 148 32 231q0 25 -3 43q-8 84 -53 129.5t-113 45.5q-49 0 -88 -25q-43 -20 -90 -68q-43 -43 -102 -137l143 668h-119z" />
<glyph unicode="i" horiz-adv-x="305" d="M-74 0h119l244 1143h-119zM233 1448h119l29 131h-119z" />
<glyph unicode="j" horiz-adv-x="360" d="M-297 -412q27 -10 51.5 -13t46.5 -3q68 0 133 49q68 47 113 133q41 80 78 246l242 1143h-117l-246 -1159q-41 -188 -86 -234q-53 -49 -111 -49h-22q-14 0 -31 4l-24 4zM317 1454h119l27 125h-119z" />
<glyph unicode="k" horiz-adv-x="700" d="M-80 0h123l127 598l188 -598h152l-191 612l420 531h-137l-432 -545l215 1016h-123z" />
<glyph unicode="l" horiz-adv-x="305" d="M-78 0h119l344 1614h-119z" />
<glyph unicode="m" horiz-adv-x="1165" d="M-33 0h121l125 586q16 80 35.5 144.5t42.5 111.5q25 47 51.5 87t56.5 68q57 57 105 58q33 0 57.5 -31t24.5 -86q2 -53 -41 -268l-144 -670h121l125 586q16 84 38 149.5t44 112.5q47 96 105 149q57 57 106 58q39 0 57 -31q23 -36 23 -91q0 -58 -41 -263l-143 -670h120 l152 715q36 170 36 255q0 16 -1 29q-8 84 -49 131q-39 45 -101 46q-41 0 -84 -25q-20 -10 -42.5 -27.5t-45.5 -40.5q-45 -47 -102 -145q-2 53 -8 90t-17 59q-23 45 -55 66q-39 23 -80 23t-86 -23q-47 -25 -86 -68q-43 -43 -102 -149l45 207h-119z" />
<glyph unicode="n" horiz-adv-x="761" d="M-31 0h119l125 592q18 86 40.5 151.5t45.5 112.5q49 96 104 145q59 53 111 54q41 0 70 -39q29 -38 28 -99q0 -73 -34 -237l-146 -680h119l154 727q23 96 28 164q4 41 4 72q0 21 -2 38q-12 86 -55 129q-45 45 -111 46q-47 0 -90 -25q-39 -18 -90 -68q-23 -23 -47.5 -56.5 t-52.5 -80.5l43 197h-119z" />
<glyph unicode="o" horiz-adv-x="790" d="M59 571q-31 -146 -31 -257q0 -115 33 -193q68 -152 205 -152q139 0 269 152q129 147 194 450q31 146 31 258q0 116 -33 195q-66 152 -203 152q-141 0 -270 -152t-195 -453zM152 369q4 90 28 202q23 113 57.5 203t77.5 158q88 137 187 137q94 0 125 -137q12 -53 12 -120 q0 -103 -29 -241q-49 -227 -137 -360q-88 -137 -184 -137t-127 137q-11 53 -11 119q0 19 1 39z" />
<glyph unicode="p" horiz-adv-x="786" d="M-86 -434h121l135 629q12 -106 37 -146q20 -39 57 -59q35 -20 80 -21q139 0 254 172q115 168 170 432q32 153 32 277q0 21 -1 41q-6 141 -59.5 213t-133.5 72q-41 0 -92 -23q-23 -12 -44 -27.5t-44 -38.5q-20 -20 -45 -56t-53 -87l41 199h-119zM215 371q6 88 29 194 q31 143 80 264q23 59 51 104.5t59 76.5q63 61 121 61q78 0 115 -110q14 -41 14 -108q0 -110 -39 -290q-51 -244 -135 -366q-82 -121 -172 -121q-96 0 -117 137q-8 46 -8 101q0 28 2 57z" />
<glyph unicode="q" horiz-adv-x="784" d="M72 252q6 -139 59 -211q51 -72 131 -72q47 0 88 21q49 23 90 59q20 20 45 55t54 82l-133 -620h122l336 1577h-119l-40 -195q-8 53 -18.5 88t-20.5 56q-20 43 -60 61q-39 23 -80 23q-141 0 -254 -172q-115 -172 -170 -435q-18 -88 -26 -167q-5 -53 -6 -102zM201 182 q-14 42 -14 110q0 109 36 286q51 242 137 368q82 123 170 123q96 0 119 -139q8 -48 8 -103q0 -111 -30 -252q-31 -147 -80 -262q-49 -121 -113 -180q-61 -61 -117 -61q-77 -1 -116 110z" />
<glyph unicode="r" horiz-adv-x="503" d="M-33 0h121l127 594q51 248 137 350q86 100 148 100q25 0 56 -8l32 -8l26 125q-27 23 -61 23q-41 0 -86 -25q-20 -14 -42 -31.5t-44 -42.5q-43 -47 -94 -135l43 201h-119z" />
<glyph unicode="s" horiz-adv-x="663" d="M-12 100q20 -59 69 -96q51 -35 136 -35q137 0 229 107q96 109 129 262q6 35 10 63.5t0 55.5q-2 49 -26 86q-16 25 -35 41q-10 8 -35 21t-62 40l-36 25l-50 30q-53 35 -67 72q-9 21 -10 52q0 23 6 50q18 84 69 142q49 55 121 55q57 0 88 -33q16 -16 19.5 -42.5t-2.5 -55.5 l112 -4q7 30 7 60q0 15 -2 29q-5 44 -25 79q-41 72 -168 72q-133 0 -221 -100.5t-115 -227.5q-11 -48 -10 -90q0 -40 9 -73q19 -69 85 -103l74 -39l32 -27l54 -35q58 -40 58 -120q0 -28 -7 -60q-23 -92 -80 -160q-61 -70 -135 -69q-84 0 -109 49q-12 25 -13 60v8q0 32 7 67 l-108 2q-9 -39 -10 -77q1 -47 12 -81z" />
<glyph unicode="t" horiz-adv-x="577" d="M84 145q8 -90 51 -131q45 -45 111 -45q45 0 137 31l27 125q-80 -29 -111 -29q-45 0 -70 31q-25 27 -24 94q0 5 -1 12q0 31 9 82q10 61 29 146l125 586h208l21 96h-207l49 235h-119l-49 -235h-125l-22 -99h125l-131 -622q-20 -96 -29 -165q-5 -46 -5 -80q0 -18 1 -32z" />
<glyph unicode="u" horiz-adv-x="759" d="M45 57q49 -88 148 -88q47 0 86 21q41 20 86 65q47 43 102 133l-41 -188h121l244 1143h-117l-127 -594q-33 -166 -84 -264q-45 -90 -107 -146q-59 -53 -110 -53q-59 0 -90 55q-10 18 -10 62q0 83 36 258l146 682h-119l-154 -723q-32 -150 -32 -245q0 -78 22 -118z" />
<glyph unicode="v" horiz-adv-x="735" d="M137 1143l45 -1143h119l541 1143h-119l-422 -895l-39 895h-125z" />
<glyph unicode="w" horiz-adv-x="1017" d="M102 0h123l287 735l72 211l-19 -201l-12 -745h121l444 1143h-110l-277 -713l-69 -217h-3l17 231l8 699h-119l-276 -707l-72 -229h-2l25 221l24 715h-123z" />
<glyph unicode="x" horiz-adv-x="690" d="M-86 0h131l264 416l82 -416h146l-121 596l346 547h-121l-258 -406l-78 406h-135l113 -565z" />
<glyph unicode="y" horiz-adv-x="745" d="M-133 -434h88q72 0 127 33q53 29 108 106q29 37 71 114t97 193l537 1131h-115l-405 -850l-56 850h-129l74 -1104l-22 -49q-39 -86 -69 -140.5t-46 -78.5q-37 -51 -78 -74q-43 -25 -92 -25h-68z" />
<glyph unicode="z" horiz-adv-x="720" d="M-57 0h587l23 104h-469l643 887l31 152h-553l-21 -99l443 -2l-652 -882z" />
<glyph unicode="{" horiz-adv-x="587" d="M78 -68q-31 -139 12 -221q43 -84 125 -84h10l23 103h-15q-35 0 -51 47q-16 45 2 139q4 14 7.5 27.5t7.5 25.5l16 51l41 127q25 72 38 120t17 73q18 84 6 168q-16 84 -75 127q41 20 72.5 51t58.5 74q49 88 67 170q8 47 25 194l12 129l6 54q0 18 6 53q20 92 60 139 q35 47 69 47h15l22 99h-10q-84 0 -162 -84q-76 -82 -106 -220q-10 -47 -16.5 -96t-10.5 -100l-6 -107q-6 -96 -25 -178q-6 -35 -18 -64.5t-29 -56.5q-35 -53 -94 -53h-35l-20 -100h35q63 0 71 -54q8 -49 -4 -120q-10 -43 -23.5 -87t-29.5 -92l-39 -106q-37 -101 -55 -195z " />
<glyph unicode="|" horiz-adv-x="321" d="M-59 8h104l336 1589h-105z" />
<glyph unicode="}" horiz-adv-x="587" d="M-66 -373h9q84 0 161.5 84t108.5 221q18 92 25 195l6 106q6 96 24 177q6 35 18.5 65.5t28.5 56.5q33 55 95 56h34l21 98h-35q-59 0 -70 53q-8 49 5 121q10 41 22 86t29 92l37 107q16 51 31.5 99t25.5 95q16 70 12 125.5t-24 96.5q-43 84 -125 84h-8l-23 -101h12 q37 0 52 -47q18 -47 0 -137q-4 -16 -7.5 -29.5t-7.5 -25.5l-16 -54l-43 -127q-25 -72 -38 -120t-18 -72q-18 -86 -6 -170q12 -86 76 -127q-82 -43 -129 -127q-49 -82 -67 -168q-4 -25 -11.5 -73t-15.5 -120l-12 -127l-5 -51q-2 -10 -3 -23.5t-5 -29.5q-18 -90 -57 -139 q-39 -47 -74 -47h-10z" />
<glyph unicode="~" d="M55 428h76l2 16q4 18 11.5 39t19.5 43q23 45 49 66q23 20 51 20q51 0 105 -61l51 -59q80 -92 147 -93q63 0 142 68q72 66 102 209l4 14h-78l-4 -16q-12 -61 -47 -119q-35 -53 -82 -53q-49 0 -102 59l-62 68q-20 23 -37.5 37l-27.5 22t-20.5 12.5t-18.5 8.5q-18 8 -41 8 q-82 0 -148 -82q-66 -80 -90 -193z" />
<glyph unicode="&#xa1;" horiz-adv-x="395" d="M-49 -434h166l200 1096h-106zM274 987h119l27 129h-119z" />
<glyph unicode="&#xa2;" d="M96 512q6 -119 41 -193q41 -76 135 -102l-47 -217h107l45 209q117 20 188 110q18 20 33.5 49t27 56t18.5 44l7 17h-112l-4 -12q-4 -20 -14.5 -41.5t-26.5 -44.5q-35 -47 -95 -65l193 909q96 -29 78 -113v-8h116v6q12 49 -4 96q-16 49 -51 76q-35 29 -119 45l47 221h-98 l-49 -225q-106 -27 -178 -100q-74 -78 -127 -189q-49 -113 -80 -256q-33 -153 -31 -272zM217 580q2 43 8 94t21 110q25 119 61 213q35 92 74 144q39 49 102 82l-188 -885q-49 37 -63.5 94.5t-14.5 147.5z" />
<glyph unicode="&#xa3;" d="M-70 0h631l23 109h-512q74 74 114 139q18 31 41 74t45 98q23 57 43.5 111.5t40.5 109.5l54 154h231l21 102h-218l64 195q29 86 50.5 146t37.5 95q35 76 72 107q35 35 77 35q53 0 121 -52l25 113q-39 43 -72 53q-23 8 -55 8q-70 0 -129 -47q-61 -49 -111 -131 q-47 -84 -104 -258l-92 -266h-150l-20 -100h137l-53 -156q-29 -90 -57.5 -161.5t-57.5 -127.5q-27 -53 -67 -98t-93 -80z" />
<glyph unicode="&#xa4;" horiz-adv-x="849" d="M-16 567h82q-16 -129 -9.5 -231.5t33.5 -175.5q74 -207 260 -207q94 0 168 37q76 39 135 119q57 82 74 159l2 11h-113l-2 -11q-14 -80 -73 -147q-55 -66 -162 -66q-150 0 -182 203q-10 66 -11 141q0 78 11 168h497l23 101h-506q4 27 9 53.5t11 54.5q8 35 15.5 68t17.5 65 h504l20 101h-495q27 80 57.5 151.5t65.5 130.5q117 203 270 203q63 0 96 -25q33 -23 47 -79q6 -25 7.5 -51.5t-5.5 -55.5l-2 -8h115l2 6q16 80 -8 160q-27 84 -84 119q-57 39 -154 38q-186 0 -350 -206q-111 -141 -188 -383h-84l-21 -101h76q-10 -33 -16 -65.5t-15 -67.5 q-6 -29 -11 -55.5t-9 -52.5h-76z" />
<glyph unicode="&#x20ac;" horiz-adv-x="849" d="M-16 567h82q-16 -129 -9.5 -231.5t33.5 -175.5q74 -207 260 -207q94 0 168 37q76 39 135 119q57 82 74 159l2 11h-113l-2 -11q-14 -80 -73 -147q-55 -66 -162 -66q-150 0 -182 203q-10 66 -11 141q0 78 11 168h497l23 101h-506q4 27 9 53.5t11 54.5q8 35 15.5 68t17.5 65 h504l20 101h-495q27 80 57.5 151.5t65.5 130.5q117 203 270 203q63 0 96 -25q33 -23 47 -79q6 -25 7.5 -51.5t-5.5 -55.5l-2 -8h115l2 6q16 80 -8 160q-27 84 -84 119q-57 39 -154 38q-186 0 -350 -206q-111 -141 -188 -383h-84l-21 -101h76q-10 -33 -16 -65.5t-15 -67.5 q-6 -29 -11 -55.5t-9 -52.5h-76z" />
<glyph unicode="&#xa5;" d="M35 281h246l-62 -281h119l61 281h242l18 92h-239l51 235h242l22 107h-243l493 837h-111l-397 -671l-129 671h-133l156 -850h-248l-19 -94h246l-51 -237h-246z" />
<glyph unicode="&#xa6;" horiz-adv-x="321" d="M-63 -18h104l143 673h-104zM137 926h105l143 671h-104z" />
<glyph unicode="&#xa7;" d="M-51 -41q-25 -125 20 -227q43 -104 250 -105q111 0 189 54q39 27 69.5 60.5t59 74.5t46 87t29.5 99q16 76 9 133q-6 63 -64 139q143 127 174 275q25 113 -8 190q-16 39 -49 81t-86 85l-96 82q-41 35 -63.5 71t-35.5 68q-25 63 -6 148q23 106 84 162q63 57 143 57 q37 0 66 -7t49 -26q41 -35 25 -106l-2 -11h129l2 9q20 98 -27 174q-49 72 -197 71q-154 0 -260 -104q-51 -51 -87 -117.5t-52 -146.5q-18 -78 -8 -150q12 -72 51 -129q-27 -23 -50.5 -52.5t-46 -68t-38.5 -75.5t-25 -72q-10 -41 -9 -80t9 -78q8 -41 33 -76.5t64 -72.5 l108 -101q53 -51 85 -92t48 -69q14 -35 17 -64q2 -18 0 -36.5t-6 -37.5q-18 -86 -82 -165q-63 -76 -166 -76q-63 0 -113 24q-49 27 -61.5 76t4.5 125l2 8h-125zM264 594q-12 45 0 106q4 20 10.5 42t16.5 46q20 51 71 109l140 -123q43 -39 65.5 -74.5t30.5 -64.5 q18 -57 2 -125q-10 -47 -32.5 -90t-63.5 -84l-154 135q-41 35 -60.5 67.5t-25.5 55.5z" />
<glyph unicode="&#xa8;" horiz-adv-x="770" d="M174 1317h119l29 129h-119zM451 1317h118l29 129h-119z" />
<glyph unicode="&#xa9;" horiz-adv-x="1144" d="M35 358q31 -195 129 -299q98 -106 235 -106q135 0 279 106q141 104 256 299q57 98 98 202t64 214q23 111 26.5 213.5t-10.5 200.5q-29 193 -127 301q-96 109 -237 108q-139 0 -283 -108q-150 -113 -256 -301q-113 -197 -158 -414q-47 -226 -16 -416zM109 403 q-25 170 18 371q39 193 135 367q94 168 221 268q125 98 244 98t203 -98q41 -49 68.5 -115.5t37.5 -152.5q20 -170 -18 -367q-43 -203 -141 -371q-98 -172 -220 -266q-119 -90 -241 -94q-115 0 -199 94q-79 92 -108 266zM280.5 518q12.5 -123 67.5 -184.5t150 -61.5 q104 0 184 45l20 97q-98 -55 -167 -56q-100 0 -138 105q-41 104 6 317q43 213 125 318q82 98 177 98q80 0 153 -55l21 92q-78 47 -174 47q-152 0 -259 -150q-53 -76 -88.5 -160.5t-58.5 -183.5q-31 -145 -18.5 -268z" />
<glyph unicode="&#xaa;" horiz-adv-x="436" d="M6 1077q-18 -86 10 -129q29 -47 80 -47q35 0 74 23q37 20 82 67q-4 -12 -4 -30q0 -16 -2 -37h88q2 41 8 89t20 107l52 250q12 53 14 88t-2 55q-6 39 -41 62q-35 25 -82 24q-49 0 -92 -20q-41 -18 -74 -53q-31 -33 -39 -72v-6h80v6q8 35 37 57q33 23 68 23q41 0 57 -33 q8 -16 7 -40.5t-7 -57.5l-18 -86l-35 -10q-70 -20 -119 -41t-80 -47.5t-51.5 -60.5t-30.5 -81zM90 1067q12 51 49 88q39 37 148 80l16 6l-12 -59q-25 -115 -72 -158q-53 -49 -86 -49q-20 0 -35 22q-16 25 -8 70z" />
<glyph unicode="&#xab;" horiz-adv-x="694" d="M45 481l121 -325h110l-94 401l264 404h-102l-266 -328zM322 483l120 -327h111l-94 399l266 406h-104l-267 -328z" />
<glyph unicode="&#xac;" d="M104 510h613l-70 -328h98l91 426h-711z" />
<glyph unicode="&#xad;" horiz-adv-x="493" d="M39 637h395l21 98h-396z" />
<glyph unicode="&#xae;" horiz-adv-x="1144" d="M35 358q31 -195 129 -299q98 -106 235 -106q135 0 279 106q141 104 256 299q57 98 98 202t64 214q23 111 26.5 213.5t-10.5 200.5q-29 193 -127 301q-96 109 -237 108q-139 0 -283 -108q-150 -113 -256 -301q-113 -197 -158 -414q-47 -226 -16 -416zM109 403 q-25 170 18 371q39 193 135 367q94 168 221 268q125 98 244 98t203 -98q41 -49 68.5 -115.5t37.5 -152.5q20 -170 -18 -367q-43 -203 -141 -371q-98 -172 -220 -266q-119 -90 -241 -94q-115 0 -199 94q-79 92 -108 266zM270 293h103l90 420h76q14 0 26 -111l8 -70l27 -235 h113l-35 278q-12 109 -41 144q70 39 117 117q25 39 40 78.5t25 80.5q8 35 9 69t-3 64q-8 59 -43 95q-16 16 -40.5 25t-63.5 9h-203zM481 795l80 379h76q51 0 70 -27q16 -25 18 -64q2 -18 -1 -39.5t-7 -44.5q-16 -78 -55 -141q-41 -63 -111 -63h-70z" />
<glyph unicode="&#xaf;" horiz-adv-x="770" d="M199 1311h356l16 80h-356z" />
<glyph unicode="&#xb0;" horiz-adv-x="444" d="M53 1341q-23 -104 10 -178q35 -76 105 -76t135.5 76t87.5 178q23 109 -10 183q-35 74 -107 73q-70 0 -133 -73q-68 -77 -88 -183zM109 1339q14 76 63 138q43 57 92 57q47 0 67.5 -57.5t6.5 -137.5q-14 -72 -64 -133q-45 -57 -92 -57q-51 0 -69 57q-20 55 -4 133z" />
<glyph unicode="&#xb1;" d="M-70 0h711l23 98h-711zM104 819h306l-103 -481h99l102 481h307l23 99h-308l103 481h-98l-103 -481h-305z" />
<glyph unicode="&#xb2;" horiz-adv-x="522" d="M-43 668h397l19 86h-307v6q16 72 65 145.5t129 151.5l37 35q16 16 37.5 34.5t48.5 45t44 51t30 49.5q14 25 22 49.5t15 48.5q18 92 -13 160q-29 68 -135 67q-88 0 -141 -47q-55 -49 -64 -92l-4 -18h88l4 18q4 23 29 39q25 18 68 19q47 0 67 -39q18 -41 6 -93 q-8 -35 -28 -79q-10 -20 -33 -51t-64 -72l-49 -52l-49 -45q-41 -39 -75.5 -78.5t-59.5 -82.5q-49 -90 -61 -148z" />
<glyph unicode="&#xb3;" horiz-adv-x="524" d="M6 793q-14 -66 23 -109t110 -43q109 0 183 88q70 88 94 199q14 63 4 127q-6 53 -74 114q76 59 103 111q12 27 22 53.5t16 55.5q20 96 -16 153q-37 55 -109 55q-49 0 -92 -18q-49 -23 -77 -57q-31 -35 -41 -74l-5 -16h76l4 18q6 25 31 43q27 20 76 20q53 0 61 -40 q14 -45 2 -91q-4 -23 -14 -43l-21 -41q-29 -45 -59 -69q-33 -27 -80 -27h-45l-20 -88h37q88 0 112 -59q27 -61 12 -140q-16 -72 -53 -129q-37 -61 -104 -61q-53 0 -70 23q-10 27 -6 40l4 23h-80z" />
<glyph unicode="&#xb4;" horiz-adv-x="770" d="M223 1352h92l232 262h-113z" />
<glyph unicode="&#xb5;" horiz-adv-x="770" d="M-193 -373h121l138 400q31 -57 102 -58q53 0 123 47q35 23 77 65t89 101l-64 -182h123l385 1143h-113l-190 -565q-31 -92 -60.5 -161t-60.5 -118q-59 -98 -125 -152q-63 -53 -121 -53q-49 0 -69 49q-23 47 0 156q8 35 21.5 86t37.5 121l215 637h-117z" />
<glyph unicode="&#xb6;" d="M182 1130q-35 -168 33 -284q66 -119 209 -119l-234 -1100h103l387 1825h137l-387 -1825h98l387 1825h105l22 100h-385q-147 0 -237 -51q-86 -51 -152 -155q-61 -105 -86 -216z" />
<glyph unicode="&#xb7;" d="M328 455h168l45 207h-168z" />
<glyph unicode="&#x2219;" d="M328 455h168l45 207h-168z" />
<glyph unicode="&#xb8;" horiz-adv-x="770" d="M242 -406q37 -29 94 -28q59 0 96 43q33 39 47 96q10 49 -2 90t-74 64l62 108h-68l-88 -155q109 -23 90 -105q-6 -29 -30 -53q-20 -27 -43 -27q-39 0 -70 31z" />
<glyph unicode="&#xb9;" horiz-adv-x="524" d="M137 700h90l185 875h-80l-154 -98l-18 -88l137 71z" />
<glyph unicode="&#xba;" horiz-adv-x="483" d="M37 1251q-37 -174 6 -260t125 -86q84 0 162 86q80 86 116 260q37 172 -6 260q-41 86 -125 86q-86 0 -161 -86q-80 -90 -117 -260zM111 1055q-16 72 8 196q14 61 32.5 111.5t43.5 87.5q49 76 104 76q57 0 76 -76q8 -37 7 -87t-15 -112q-25 -115 -76 -196q-49 -74 -107 -74 q-59 0 -73 74z" />
<glyph unicode="&#xbb;" horiz-adv-x="696" d="M-29 158h111l254 315l37 168l-117 320h-111l93 -400zM248 156h108l258 317l37 168l-119 320h-110l92 -400z" />
<glyph unicode="&#xbc;" horiz-adv-x="1179" d="M-43 -39h129l1059 1606h-113zM172 641h90l193 903h-80l-154 -98l-18 -88l137 72zM537 262h288l-55 -264h88l55 264h84l17 80h-84l112 530h-98l-389 -518zM659 348l252 340l-71 -340h-181z" />
<glyph unicode="&#xbd;" horiz-adv-x="1179" d="M-61 -8h127l1058 1605h-110zM152 672h90l192 903h-80l-153 -98l-19 -88l137 71zM555 0h401l17 86h-309l2 8q16 76 63 157t133 159l39 34q16 16 36.5 35t47.5 43q49 49 74 99q27 49 35 96q18 86 -13 151q-31 68 -135 68q-86 0 -143 -51q-51 -47 -64 -99l-4 -18h88l4 20 q6 23 29 39q27 18 68 19q49 0 65 -37q23 -39 10 -88q-6 -33 -28 -76q-20 -39 -92 -115l-52 -49l-49 -47q-43 -41 -77.5 -82t-59.5 -86q-25 -47 -41 -85t-22 -68z" />
<glyph unicode="&#xbe;" horiz-adv-x="1179" d="M-23 -51h127l1070 1618h-111zM53 793q-16 -68 25 -111q37 -43 108 -43q109 0 181 88q70 86 96 201q16 68 6 127q-8 57 -76 114q76 57 105 111q25 51 37 109q20 96 -15 153q-37 55 -108 55q-53 0 -97 -20q-41 -18 -75 -55q-31 -35 -41 -74l-4 -16h75l4 18q6 23 33 43 q23 20 74 20q53 0 61 -40q12 -41 0 -91q-10 -47 -32 -84q-23 -39 -60 -69q-29 -27 -80 -27h-45l-20 -88h37q90 0 114 -59q27 -57 11 -140q-16 -72 -54 -129q-37 -61 -102 -61q-53 0 -70 23q-14 25 -8 40l4 23h-80zM563 262h287l-55 -264h90l55 264h84l16 80h-84l113 530 h-100l-385 -518zM686 348l252 340l-72 -340h-180z" />
<glyph unicode="&#xbf;" horiz-adv-x="741" d="M23 -315q23 -80 75 -121q57 -45 129 -45q37 0 72 9t70 26q68 33 112 94q47 59 60 116v9h-115l-2 -11q-14 -72 -57 -108q-41 -35 -99 -35q-70 0 -108 57q-37 59 -19 142q6 25 16.5 49t27 51t39 60.5t57.5 74.5l65 84q27 33 51.5 74t53.5 92q27 53 49 118.5t39 147.5l20 95 h-117l-26 -127q-31 -143 -76 -215q-20 -35 -45 -67t-53 -60l-58 -64q-47 -51 -76.5 -94t-44.5 -78q-29 -66 -38 -117q-20 -87 -2 -157zM512 987h119l26 129h-118z" />
<glyph unicode="&#xc0;" horiz-adv-x="948" d="M-184 0h121l208 442h426l13 -442h139l-43 1552h-129zM201 559l344 731l18 -731h-362zM412 1921l178 -172h143l-133 172h-188z" />
<glyph unicode="&#xc1;" horiz-adv-x="948" d="M-184 0h121l208 442h426l13 -442h139l-43 1552h-129zM201 559l344 731l18 -731h-362zM377 1749h137l252 172h-182z" />
<glyph unicode="&#xc2;" horiz-adv-x="948" d="M-182 0h121l208 442h426l13 -442h139l-43 1552h-129zM203 559l344 731l18 -731h-362zM369 1749h92l102 61l78 -63h92l-108 154h-82z" />
<glyph unicode="&#xc3;" horiz-adv-x="948" d="M-182 0h121l208 442h426l13 -442h139l-43 1552h-129zM203 559l344 731l18 -731h-362zM328 1753h71q16 47 37 59q23 14 35 15q10 0 19.5 -5t25.5 -14l12 -8l37 -24q23 -16 41.5 -23.5t30.5 -7.5q45 0 90 32.5t76 114.5h-74q-16 -39 -35 -53q-12 -10 -32 -10q-16 0 -50 18 l-53 31q-39 23 -72 23t-59 -15q-29 -16 -55 -49q-31 -37 -45 -84z" />
<glyph unicode="&#xc4;" horiz-adv-x="948" d="M-180 0h121l209 442h425l13 -442h139l-43 1552h-129zM205 559l344 731l18 -731h-362zM459 1749h119l26 131h-119zM733 1749h121l27 131h-121z" />
<glyph unicode="&#xc5;" horiz-adv-x="948" d="M-180 0h121l211 442h426l10 -442h143l-47 1548q35 35 51 68q23 37 31 82q16 74 -8 125q-25 53 -72 53q-49 0 -92 -53q-47 -55 -62 -125q-10 -49 -4 -82q4 -18 9.5 -34.5t17.5 -31.5zM207 559l344 731l18 -731h-362zM594 1712q10 41 33 70q20 31 49 30q23 0 35 -30 q10 -29 0 -70q-4 -20 -12.5 -36.5t-18.5 -33.5q-25 -29 -47 -28q-25 0 -37 28q-8 29 -2 70z" />
<glyph unicode="&#xc6;" horiz-adv-x="1292" d="M-166 0h133l277 440h321l-94 -440h592l24 115h-464l139 651h377l20 98h-377l123 574h430l25 114h-557zM315 559l414 660l-141 -660h-273z" />
<glyph unicode="&#xc7;" horiz-adv-x="849" d="M51 348q2 -74 19.5 -139.5t46.5 -120.5q57 -111 174 -133l-80 -141q115 -20 96 -107q-6 -27 -28 -53q-27 -27 -48 -27q-41 0 -67 31l-14 -64q37 -29 94 -28q57 0 98 43q33 39 47 96q10 47 -2 88t-74 64l54 98q55 4 99 16.5t79 32.5q68 39 117 117q51 80 65 147l2 8h-113 l-2 -10q-14 -78 -73 -145q-55 -66 -162 -66q-152 0 -182 203q-31 201 36 518q68 313 185 516t268 203q59 0 96 -24.5t49 -77.5q12 -51 0 -109l-2 -8h115l2 6q8 41 7 80t-13 80q-20 76 -86 119q-61 39 -149 38q-137 0 -252 -100q-115 -98 -203 -272q-88 -176 -152 -479 q-53 -253 -47 -400z" />
<glyph unicode="&#xc8;" horiz-adv-x="749" d="M-111 0h592l25 115h-463l137 641h375l23 108h-375l123 574h428l22 114h-557zM328 1921l178 -172h143l-131 172h-190z" />
<glyph unicode="&#xc9;" horiz-adv-x="749" d="M-111 0h592l25 115h-463l137 641h375l23 108h-375l123 574h428l22 114h-557zM254 1749h137l252 172h-182z" />
<glyph unicode="&#xca;" horiz-adv-x="749" d="M-109 0h592l25 115h-463l137 641h375l23 108h-375l123 574h428l22 114h-557zM283 1749h94l100 61l78 -63h94l-108 154h-82z" />
<glyph unicode="&#xcb;" horiz-adv-x="749" d="M-106 0h591l25 115h-463l137 641h375l23 108h-375l123 574h428l24 114h-557zM358 1749h119l29 131h-119zM635 1749h119l28 131h-118z" />
<glyph unicode="&#xcc;" horiz-adv-x="315" d="M-111 0h129l330 1552h-129zM96 1921l178 -172h144l-131 172h-191z" />
<glyph unicode="&#xcd;" horiz-adv-x="315" d="M-111 0h129l330 1552h-129zM23 1749h137l252 172h-185z" />
<glyph unicode="&#xce;" horiz-adv-x="315" d="M-109 0h129l330 1552h-129zM51 1749h92l103 61l78 -63h94l-111 154h-82z" />
<glyph unicode="&#xcf;" horiz-adv-x="315" d="M-106 0h129l331 1552h-129zM127 1749h119l28 131h-118zM403 1749h119l29 131h-119z" />
<glyph unicode="&#xd0;" horiz-adv-x="911" d="M-74 0h291q190 0 303 100q115 98 199 275q84 172 135 407q27 127 37 232.5t2 193.5q-16 172 -88 258q-74 86 -275 86h-272l-152 -710h-116l-23 -101h117zM82 121l131 620h178l23 103h-176l129 602h149q141 0 197 -76q49 -72 53 -231q0 -162 -45 -375q-47 -219 -117 -363 q-68 -145 -151.5 -212.5t-219.5 -67.5h-151z" />
<glyph unicode="&#xd1;" horiz-adv-x="923" d="M-111 0h121l234 1098l24 125l13 -115l217 -1108h129l329 1552h-118l-234 -1101l-22 -121l-17 123l-219 1099h-127zM315 1753h72q16 47 37 59q23 14 35 15q10 0 19 -5t26 -14l12 -8l37 -24q23 -16 41 -23.5t33 -7.5q43 0 88 33q43 31 78 114h-76q-16 -39 -35 -53 q-12 -10 -33 -10q-16 0 -49 18l-53 31q-39 23 -72 23t-59 -15q-12 -8 -26.5 -20.5t-29.5 -28.5q-31 -37 -45 -84z" />
<glyph unicode="&#xd2;" horiz-adv-x="958" d="M14 168q74 -215 256 -215t346 215q162 211 246 608q86 395 12 608q-70 213 -253 213q-184 0 -349 -213q-160 -211 -245 -608t-13 -608zM123 256q-33 190 35 520q72 328 186 520q119 197 254 197t170 -197q37 -195 -35 -520q-68 -330 -186 -520q-117 -197 -254 -197 q-133 0 -170 197zM420 1921l178 -172h143l-131 172h-190z" />
<glyph unicode="&#xd3;" horiz-adv-x="958" d="M14 168q74 -215 256 -215t346 215q162 211 246 608q86 395 12 608q-70 213 -253 213q-184 0 -349 -213q-160 -211 -245 -608t-13 -608zM123 256q-33 190 35 520q72 328 186 520q119 197 254 197t170 -197q37 -195 -35 -520q-68 -330 -186 -520q-117 -197 -254 -197 q-133 0 -170 197zM346 1749h137l252 172h-182z" />
<glyph unicode="&#xd4;" horiz-adv-x="958" d="M16 168q74 -215 256 -215t346 215q162 211 246 608q86 393 15 608q-74 213 -256 213q-184 0 -347 -213q-82 -106 -143 -257.5t-104 -350.5q-85 -397 -13 -608zM125 256q-33 190 35 520q72 328 186 520q119 197 254 197t170 -197q37 -195 -35 -520q-68 -330 -186 -520 q-117 -197 -254 -197q-133 0 -170 197zM377 1749h92l104 61l76 -63h92l-108 154h-82z" />
<glyph unicode="&#xd5;" horiz-adv-x="958" d="M16 168q74 -215 256 -215t346 215q162 211 246 608q86 393 15 608q-74 213 -256 213q-184 0 -347 -213q-82 -106 -143 -257.5t-104 -350.5q-85 -397 -13 -608zM125 256q-33 190 35 520q72 328 186 520q119 197 254 197t170 -197q37 -195 -35 -520q-68 -330 -186 -520 q-117 -197 -254 -197q-133 0 -170 197zM338 1753h74q12 45 34 59q20 14 33 15q18 0 47 -19l13 -8l34 -24q45 -31 76 -31q43 0 88 33q49 35 76 114h-76q-16 -39 -30 -53q-12 -10 -35 -10q-8 0 -20.5 4t-28.5 14l-54 31q-39 23 -73 23q-33 0 -56 -15q-31 -16 -59 -49 q-29 -39 -43 -84z" />
<glyph unicode="&#xd6;" horiz-adv-x="958" d="M18 168q74 -215 256 -215t347 215q162 211 245 608q86 393 15 608q-74 213 -256 213q-184 0 -346 -213q-82 -106 -143.5 -257.5t-104.5 -350.5q-85 -397 -13 -608zM127 256q-33 190 35 520q72 328 186 520q119 197 254 197t170 -197q37 -195 -35 -520q-68 -330 -186 -520 q-117 -197 -254 -197q-133 0 -170 197zM451 1749h118l29 131h-119zM727 1749h119l28 131h-118z" />
<glyph unicode="&#xd7;" d="M-4 96l24 -71l386 446l184 -448l78 88l-183 426l381 458l-53 97l-373 -445l-182 428l-74 -84l189 -452z" />
<glyph unicode="&#xd8;" horiz-adv-x="958" d="M-98 -16h125l63 98q74 -129 219 -129q123 0 238 96q113 98 203 270q45 88 82.5 201t66.5 254q37 168 43 313q8 141 -24 277l151 233h-119l-86 -133q-80 133 -211 133q-188 0 -348 -217q-160 -213 -242 -585q-16 -78 -27 -154t-20 -152q-12 -154 21 -290zM153 509 q1 58 9 109q6 53 14 100.5t19 92.5q63 305 184 493.5t254 188.5q35 0 76 -20q45 -18 88 -109l-641 -981q-4 68 -3 126zM172 217l629 963q6 -90 -4.5 -193.5t-34.5 -224.5q-68 -319 -184.5 -510t-255.5 -191q-107 0 -150 156z" />
<glyph unicode="&#xd9;" d="M-41 162q18 -104 96 -158q76 -51 183 -51q115 0 198 63q88 61 154 174q63 115 121 383l209 979h-117l-205 -960q-29 -141 -55.5 -232.5t-48.5 -134.5q-47 -92 -105 -129q-59 -39 -129 -39q-74 0 -121 39q-47 37 -59 119q-12 72 39 303l219 1034h-127l-219 -1026 q-53 -260 -33 -364zM377 1921l178 -172h143l-133 172h-188z" />
<glyph unicode="&#xda;" d="M-41 162q18 -104 96 -158q76 -51 183 -51q115 0 198 63q88 61 154 174q63 115 121 383l209 979h-117l-205 -960q-29 -141 -55.5 -232.5t-48.5 -134.5q-47 -92 -105 -129q-59 -39 -129 -39q-74 0 -121 39q-47 37 -59 119q-12 72 39 303l219 1034h-127l-219 -1026 q-53 -260 -33 -364zM268 1749h138l251 172h-182z" />
<glyph unicode="&#xdb;" d="M-39 162q18 -104 96 -158q76 -51 183 -51q113 0 200 63q86 63 152 174q63 115 121 383l209 979h-117l-205 -960q-29 -141 -55.5 -232.5t-48.5 -134.5q-47 -92 -105 -129q-59 -39 -129 -39q-74 0 -121 39q-47 37 -59 119q-12 72 39 303l219 1034h-127l-219 -1026 q-53 -260 -33 -364zM332 1749h94l102 61l76 -63h94l-108 154h-84z" />
<glyph unicode="&#xdc;" d="M-37 162q18 -104 96 -158q76 -51 183 -51q113 0 200 63q86 63 152 174q63 115 121 383l209 979h-117l-205 -960q-59 -281 -104 -367q-47 -92 -105 -129q-59 -39 -129 -39q-74 0 -121 39q-47 37 -59 119q-10 80 39 303l219 1034h-127l-217 -1026q-55 -258 -35 -364z M408 1749h118l29 131h-119zM684 1749h119l28 131h-118z" />
<glyph unicode="&#xdd;" horiz-adv-x="794" d="M131 0h129l156 731l487 821h-123l-374 -624l-115 624h-150l146 -821zM326 1749h137l252 172h-185z" />
<glyph unicode="&#xde;" horiz-adv-x="759" d="M-72 0h131l76 354h121q186 0 309 142q125 145 168 346q25 123 12 215q-12 90 -65 141q-53 47 -211 47h-145l65 307h-129zM160 465l143 678h148q129 0 153 -84q27 -82 0 -217q-33 -152 -112 -267q-78 -111 -246 -110h-86z" />
<glyph unicode="&#xdf;" horiz-adv-x="770" d="M-72 0h121l256 1206q39 186 92 246q51 57 109 57q49 0 74 -41q27 -43 14 -96q-8 -37 -31.5 -83t-66.5 -103l-50 -66q-2 -4 -8 -12t-16 -23q-80 -100 -98 -188q-10 -47 -5 -104q4 -25 20.5 -61t45.5 -83q4 -8 9 -17t9 -20l27 -51q63 -123 71.5 -182.5t-3.5 -130.5 q-18 -84 -62 -127q-39 -45 -80 -45q-14 0 -65 10q-47 8 -98 47l-25 -117q59 -47 154 -47q115 0 192 90q80 92 107 226q18 82 7.5 158.5t-55.5 146.5l-36 57l-25 45l-20 33q-57 98 -46 158q6 23 24.5 56.5t53.5 78.5l43 49q27 33 49.5 64.5t40.5 64.5q37 66 56 143 q29 135 -29 205q-55 70 -156 70q-86 0 -149 -49q-66 -47 -119 -146q-51 -90 -88 -270z" />
<glyph unicode="&#xe0;" horiz-adv-x="720" d="M-41 270q-31 -141 12 -221t129 -80q49 0 109 31q57 29 164 147q-12 -61 -13 -147h127q2 106 19 186q14 80 31 154l94 444q39 176 22 248q-16 63 -67 105q-53 39 -133 39q-78 0 -150 -33q-68 -33 -125 -103q-53 -66 -65 -127l-4 -14h122l5 16q6 33 23 62t42 53 q51 51 123 51q61 0 96 -53q31 -53 4 -182l-35 -158l-67 -18q-221 -61 -324 -152q-104 -86 -139 -248zM74 203q0 23 6 47q23 100 86 170q66 70 264 149l41 17l-29 -127q-25 -121 -69 -203q-47 -88 -105 -137q-61 -51 -108 -51q-29 0 -54 24q-25 20 -30 66q-2 22 -2 45z M432 1614l113 -250h92l-90 250h-115z" />
<glyph unicode="&#xe1;" horiz-adv-x="720" d="M-41 270q-31 -141 12 -221t129 -80q49 0 109 31q57 29 164 147q-12 -61 -13 -147h127q2 106 19 186q14 80 31 154l94 444q39 176 22 248q-16 63 -67 105q-53 39 -133 39q-78 0 -150 -33q-68 -33 -125 -103q-53 -66 -65 -127l-4 -14h122l5 16q6 33 23 62t42 53 q51 51 123 51q61 0 96 -53q31 -53 4 -182l-35 -158l-67 -18q-221 -61 -324 -152q-104 -86 -139 -248zM74 203q0 23 6 47q23 100 86 170q66 70 264 149l41 17l-29 -127q-25 -121 -69 -203q-47 -88 -105 -137q-61 -51 -108 -51q-29 0 -54 24q-25 20 -30 66q-2 22 -2 45z M393 1352h92l230 262h-113z" />
<glyph unicode="&#xe2;" horiz-adv-x="720" d="M-41 270q-31 -141 12 -221t129 -80q49 0 109 31q57 29 164 147q-12 -61 -13 -147h127q2 106 19 186q14 80 31 154l94 444q39 176 22 248q-16 63 -67 105q-53 39 -133 39q-78 0 -150 -33q-68 -33 -125 -103q-53 -66 -65 -127l-4 -14h122l5 16q6 33 23 62t42 53 q51 51 123 51q61 0 96 -53q31 -53 4 -182l-35 -158l-67 -18q-221 -61 -324 -152q-104 -86 -139 -248zM74 203q0 23 6 47q23 100 86 170q66 70 264 149l41 17l-29 -127q-25 -121 -69 -203q-47 -88 -105 -137q-61 -51 -108 -51q-29 0 -54 24q-25 20 -30 66q-2 22 -2 45z M330 1348h106l76 102l31 -100h108l-65 264h-78z" />
<glyph unicode="&#xe3;" horiz-adv-x="720" d="M-33 270q-31 -141 12.5 -221t126.5 -80q49 0 109 31q59 29 166 147q-6 -31 -10 -67.5t-4 -79.5h127q4 53 8 99t12 87q14 80 31 154l94 444q37 182 23 248q-16 66 -69.5 105t-133.5 39t-148 -33q-72 -35 -127 -103q-49 -66 -65 -127l-2 -14h123l2 16q14 63 65 114.5 t125 51.5q63 0 94 -53q33 -49 4 -182l-32 -158l-68 -18q-219 -61 -326 -152q-102 -88 -137 -248zM84 158q-6 47 2 92q20 96 88 170q68 72 264 149l39 17l-26 -127q-25 -121 -70 -203q-47 -88 -105 -137q-61 -51 -110 -51q-31 0 -51 24q-29 25 -31 66zM276 1315h78 q20 98 66 98q18 0 47 -27l22 -28q37 -47 76 -47q35 0 68 26q37 31 57 72q10 20 21.5 54t23.5 81h-78q-25 -115 -61 -114q-20 0 -66 40l-20 29q-31 45 -70 45q-51 0 -94 -55q-45 -57 -70 -174z" />
<glyph unicode="&#xe4;" horiz-adv-x="720" d="M-23 270q-31 -141 12.5 -221t127.5 -80q49 0 110 31q57 29 164 147q-12 -61 -12 -147h127q2 106 18 186q14 80 31 154l94 444q39 176 23 248q-16 63 -68 105q-57 39 -133 39q-78 0 -149 -33q-72 -35 -125 -103q-51 -63 -68 -127l-2 -14h123l4 16q12 63 63.5 114.5 t124.5 51.5q63 0 95 -53q33 -49 4 -182l-33 -158l-68 -18q-219 -61 -325 -152q-103 -88 -138 -248zM94 158q-6 47 2 92q20 96 88 170q68 72 265 149l38 17l-26 -127q-25 -121 -70 -203q-47 -88 -104 -137q-61 -51 -109 -51q-33 0 -53 24q-29 25 -31 66zM295 1317h119l28 129 h-118zM571 1317h119l29 129h-119z" />
<glyph unicode="&#xe5;" horiz-adv-x="720" d="M-47 270q-29 -143 14 -221q43 -80 127 -80q49 0 109 31q61 31 166 147q-14 -57 -15 -147h127q4 53 8.5 99t12.5 87q14 80 30 154l95 444q37 182 22 248q-16 66 -69.5 105t-133.5 39t-147 -33q-72 -35 -127 -103q-53 -70 -66 -127l-2 -14h123l2 16q14 63 65.5 114.5 t125.5 51.5q63 0 94 -53t4 -182l-33 -158l-67 -18q-219 -61 -326 -152q-102 -86 -139 -248zM72 158q-6 47 2 92q20 96 88 170q68 70 262 149l41 17l-27 -127q-25 -121 -69 -203q-47 -88 -105 -137q-61 -51 -110 -51q-31 0 -52 24q-26 21 -30 66zM389.5 1482.5 q-16.5 -71.5 7.5 -122.5q23 -53 70 -53t94 53q41 51 57 123q16 74 -6 125q-23 53 -69 53q-47 0 -94 -53q-43 -54 -59.5 -125.5zM444 1403q-10 31 0 78q4 23 13.5 43t19.5 37q25 33 51 32q27 0 35 -32q8 -35 0 -80q-8 -43 -32.5 -78t-51.5 -35q-25 0 -35 35z" />
<glyph unicode="&#xe6;" horiz-adv-x="1208" d="M8 270q-29 -137 10 -217q41 -84 140 -84q84 0 172 60q86 61 180 207q12 -162 78 -216q59 -51 139 -51q76 0 143 33q70 33 123.5 98.5t65.5 124.5l2 11h-115l-2 -13q-4 -23 -18.5 -46t-36.5 -50q-47 -55 -129 -55q-109 0 -139 143q-31 141 6 315l8 45h504l12 60 q61 285 6 412q-55 129 -176 129q-49 0 -104 -23q-51 -23 -91 -61q-41 -39 -88 -119q-18 125 -75 164q-61 39 -125 39q-78 0 -148 -37q-76 -37 -127 -101q-53 -66 -65 -127l-2 -12h123l4 16q12 66 65 115q49 51 129 51q66 0 101 -67q31 -68 -13 -264l-12 -58l-80 -24 q-190 -57 -276 -115q-43 -29 -74 -58.5t-53 -64.5q-44 -68 -62 -160zM133 248q16 66 45 114q16 27 38 50.5t50.5 44t82.5 46t134 62.5l52 23l-15 -60q-12 -66 -31.5 -124t-44.5 -113q-49 -109 -112.5 -166t-112.5 -57t-76 43q-28 43 -10 137zM659 674q45 168 129 280 q80 109 154 109q49 0 84 -45q37 -43 43 -139q4 -47 0 -91.5t-14 -85.5l-4 -28h-392z" />
<glyph unicode="&#xe7;" horiz-adv-x="710" d="M68.5 318.5q-5.5 -101.5 17.5 -173.5q39 -139 170 -174l-90 -157q115 -20 96 -107q-6 -27 -29 -53q-27 -27 -47 -27q-39 0 -69 31l-15 -64q37 -29 95 -28q61 0 98 45q39 45 47 98q12 47 0 90q-12 45 -78 64l64 108q74 6 135 41q59 37 102 94q43 61 56 121l2 11h-111 l-2 -13q-12 -59 -59 -106q-45 -45 -121 -45q-88 0 -125 116q-35 113 20 381q55 264 142 381q88 119 176 119q72 0 100 -47q27 -45 14 -106l-2 -11h113l2 8q12 63 -8 127q-25 66 -72 99q-53 35 -133 35q-154 0 -270 -158q-59 -78 -105.5 -193.5t-79.5 -269.5 q-28 -135 -33.5 -236.5z" />
<glyph unicode="&#xe8;" horiz-adv-x="749" d="M16 137q49 -168 211 -168q82 0 147.5 33t119.5 98q51 63 63 127l8 39h-110l-9 -41q-12 -59 -59 -106q-45 -47 -125 -47q-111 -4 -141 141q-35 145 14 367h508l12 59q43 203 31 315q-12 109 -70 166q-29 27 -60.5 41.5t-72.5 14.5q-145 0 -276 -175q-127 -170 -187 -438 q-55 -254 -4 -426zM160 672q55 180 135 286q80 102 147 103q55 0 90 -45t41 -133q4 -45 0 -91.5t-14 -95.5l-4 -24h-395zM451 1614l110 -250h94l-92 250h-112z" />
<glyph unicode="&#xe9;" horiz-adv-x="749" d="M16 137q49 -168 211 -168q82 0 147.5 33t119.5 98q51 63 63 127l8 39h-110l-9 -41q-12 -59 -59 -106q-45 -47 -125 -47q-111 -4 -141 141q-35 145 14 367h508l12 59q43 203 31 315q-12 109 -70 166q-29 27 -60.5 41.5t-72.5 14.5q-145 0 -276 -175q-127 -170 -187 -438 q-55 -254 -4 -426zM160 672q55 180 135 286q80 102 147 103q55 0 90 -45t41 -133q4 -45 0 -91.5t-14 -95.5l-4 -24h-395zM412 1352h92l227 262h-113z" />
<glyph unicode="&#xea;" horiz-adv-x="749" d="M16 137q49 -168 211 -168q82 0 147.5 33t119.5 98q51 63 63 127l8 39h-110l-9 -41q-12 -59 -59 -106q-45 -47 -125 -47q-111 -4 -141 141q-35 145 14 367h508l12 59q43 203 31 315q-12 109 -70 166q-29 27 -60.5 41.5t-72.5 14.5q-145 0 -276 -175q-127 -170 -187 -438 q-55 -254 -4 -426zM160 672q55 180 135 286q80 102 147 103q55 0 90 -45t41 -133q4 -45 0 -91.5t-14 -95.5l-4 -24h-395zM338 1348h106l76 102l31 -100h108l-65 264h-78z" />
<glyph unicode="&#xeb;" horiz-adv-x="749" d="M35 137q49 -168 209 -168q82 0 149 33q66 33 119 98q51 63 63 127l9 39h-111l-8 -41q-12 -55 -59 -106q-47 -47 -125 -47q-111 -4 -142 141q-35 145 15 367h508l12 59q43 203 31 315q-14 111 -70 166q-29 27 -60.5 41.5t-72.5 14.5q-150 0 -277 -175q-131 -174 -186 -438 q-55 -260 -4 -426zM176 672q57 182 137 286q80 102 148 103q55 0 90 -45t41 -133q6 -92 -14 -187l-7 -24h-395zM313 1317h119l29 129h-119zM590 1317h119l28 129h-119z" />
<glyph unicode="&#xec;" horiz-adv-x="305" d="M-78 0h119l244 1143h-119zM221 1614l113 -250h92l-90 250h-115z" />
<glyph unicode="&#xed;" horiz-adv-x="305" d="M-78 0h119l244 1143h-119zM162 1352h92l229 262h-112z" />
<glyph unicode="&#xee;" horiz-adv-x="305" d="M-78 0h119l244 1143h-119zM109 1348h106l78 102l29 -100h108l-63 264h-78z" />
<glyph unicode="&#xef;" horiz-adv-x="305" d="M-59 0h118l244 1143h-119zM84 1317h119l26 129h-118zM360 1317h119l27 129h-119z" />
<glyph unicode="&#xf0;" horiz-adv-x="774" d="M-16 524q-53 -244 6 -399q57 -156 207 -156q158 0 284 176q63 88 109.5 207t77.5 266q16 80 26.5 160t14.5 162q6 166 -19 291q-14 66 -39.5 128t-60.5 124l149 166l-26 75l-168 -184q-55 49 -114.5 61.5t-135.5 12.5h-23l-24 -111h18q106 0 197 -51l-195 -209l31 -86 l190 207q55 -98 74 -188q20 -94 23 -195q-55 61 -90 74q-41 12 -74 12q-84 0 -176 -67.5t-160 -188.5q-35 -61 -60.5 -132t-41.5 -155zM96 199q-33 123 6 315q43 193 127 315q86 123 181 123q96 0 127 -123q35 -127 -9 -315q-39 -188 -125 -315q-86 -123 -180 -123 q-96 0 -127 123z" />
<glyph unicode="&#xf1;" horiz-adv-x="759" d="M-70 0h119l125 592q37 172 86 264q45 92 104.5 145.5t110.5 53.5q41 0 70 -39q29 -37 28 -107q0 -35 -10 -92t-26 -137l-144 -680h119l154 727q23 96 28.5 163.5t1.5 110.5q-12 86 -55 129q-45 45 -111 46q-47 0 -90 -25q-45 -23 -90 -68t-100 -137l41 197h-119z M295 1315h78q20 98 67 98q18 0 47 -27l23 -28q37 -47 76 -47q35 0 67.5 26.5t55.5 71.5q10 20 22 54t23 81h-78q-25 -115 -62 -114q-18 0 -65 40l-21 29q-31 45 -69 45q-51 0 -94 -55q-45 -57 -70 -174z" />
<glyph unicode="&#xf2;" horiz-adv-x="790" d="M12 571q-61 -301 2 -450q68 -152 207 -152q137 0 266 152q133 152 195 450q66 301 -2 453q-66 152 -203 152q-141 0 -270 -152t-195 -453zM117 211q-31 133 16 360q49 227 137 361q86 137 185 137q94 0 127 -137q31 -135 -19 -361q-47 -225 -135 -360q-88 -137 -186 -137 t-125 137zM463 1614l112 -250h93l-90 250h-115z" />
<glyph unicode="&#xf3;" horiz-adv-x="790" d="M12 571q-61 -301 2 -450q68 -152 207 -152q137 0 266 152q133 152 195 450q66 301 -2 453q-66 152 -203 152q-141 0 -270 -152t-195 -453zM117 211q-31 133 16 360q49 227 137 361q86 137 185 137q94 0 127 -137q31 -135 -19 -361q-47 -225 -135 -360q-88 -137 -186 -137 t-125 137zM424 1352h92l229 262h-112z" />
<glyph unicode="&#xf4;" horiz-adv-x="790" d="M12 571q-61 -301 2 -450q68 -152 207 -152q137 0 266 152q133 152 195 450q66 301 -2 453q-66 152 -203 152q-141 0 -270 -152t-195 -453zM117 211q-31 133 16 360q49 227 137 361q86 137 185 137q94 0 127 -137q31 -135 -19 -361q-47 -225 -135 -360q-88 -137 -186 -137 t-125 137zM352 1348h107l76 102l30 -100h109l-66 264h-78z" />
<glyph unicode="&#xf5;" horiz-adv-x="790" d="M20.5 571q-65.5 -301 2.5 -450q68 -152 204 -152q139 0 268.5 151.5t194.5 450.5q63 297 -2 453q-68 152 -205 152q-139 0 -268 -152t-194.5 -453zM113 369q4 90 28 202q23 113 57.5 203t77.5 158q88 137 185 137q96 0 127 -137q31 -133 -17 -361q-49 -227 -137 -360 q-88 -137 -184 -137t-127 137q-14 68 -10 158zM307 1315h78q20 98 66 98q18 0 47 -27l22 -28q37 -47 76 -47q35 0 68 26q37 31 57 72q10 20 21.5 54t23.5 81h-78q-25 -115 -61 -114q-20 0 -66 40l-20 29q-31 45 -70 45q-51 0 -94 -55q-45 -57 -70 -174z" />
<glyph unicode="&#xf6;" horiz-adv-x="790" d="M31 571q-63 -297 2 -450q68 -152 205 -152q139 0 268 152q129 147 194 450q63 297 -2 453q-66 152 -202 152q-141 0 -270 -152t-195 -453zM123 369q4 90 29 202q23 113 57.5 203t77.5 158q88 137 186 137q94 0 125 -137q31 -133 -16 -361q-49 -227 -138 -360 q-88 -137 -184 -137t-127 137q-14 68 -10 158zM326 1317h118l29 129h-119zM602 1317h119l29 129h-119z" />
<glyph unicode="&#xf7;" d="M70 510h710l21 98h-711zM297 168h119l24 123h-118zM434 819h119l27 129h-119z" />
<glyph unicode="&#xf8;" horiz-adv-x="790" d="M-68 -31h121l56 80q63 -82 165 -82q127 0 261 148q131 147 196 452q25 117 31 221q2 104 -25 205l99 148h-111l-39 -60q-63 94 -166 95q-135 0 -266 -154q-131 -152 -195 -447q-25 -117 -30 -219q-8 -100 22 -213zM162 313q-4 61 3 132t25 153q43 209 132 338 q88 131 186 131q68 0 108 -86zM170 150l457 671q6 -125 -27 -278q-43 -203 -131 -336q-88 -131 -188 -131q-72 0 -111 74z" />
<glyph unicode="&#xf9;" horiz-adv-x="759" d="M-4 57q49 -88 147 -88q45 0 86 21q37 20 86 65q47 47 101 133l-39 -188h121l241 1143h-116l-125 -594q-37 -170 -86 -264q-47 -96 -107 -146q-59 -53 -108 -53q-63 0 -91 55q-31 57 27 320l143 682h-118l-154 -723q-55 -277 -8 -363zM426 1614l113 -250h92l-90 250h-115z " />
<glyph unicode="&#xfa;" horiz-adv-x="759" d="M-4 57q49 -88 147 -88q45 0 86 21q37 20 86 65q47 47 101 133l-39 -188h121l241 1143h-116l-125 -594q-37 -170 -86 -264q-47 -96 -107 -146q-59 -53 -108 -53q-63 0 -91 55q-31 57 27 320l143 682h-118l-154 -723q-55 -277 -8 -363zM406 1352h92l229 262h-113z" />
<glyph unicode="&#xfb;" horiz-adv-x="759" d="M-4 57q49 -88 147 -88q45 0 86 21q37 20 86 65q47 47 101 133l-39 -188h121l241 1143h-116l-125 -594q-37 -170 -86 -264q-47 -96 -107 -146q-59 -53 -108 -53q-63 0 -91 55q-31 57 27 320l143 682h-118l-154 -723q-55 -277 -8 -363zM332 1348h106l76 102l31 -100h108 l-65 264h-78z" />
<glyph unicode="&#xfc;" horiz-adv-x="759" d="M14 57q45 -88 146 -88q47 0 86 21q41 20 86 65q47 43 102 133l-39 -188h121l242 1143h-117l-125 -594q-37 -170 -86 -264q-45 -90 -106 -146q-59 -53 -111 -53q-59 0 -90 55q-29 53 27 320l145 682h-119l-153 -723q-58 -273 -9 -363zM307 1317h119l29 129h-119zM584 1317 h118l29 129h-119z" />
<glyph unicode="&#xfd;" horiz-adv-x="745" d="M-182 -434h88q72 0 127 32.5t108 106.5q29 37 71 114t97 193l535 1131h-115l-403 -850l-58 850h-129l76 -1104l-22 -49q-80 -168 -115 -219q-37 -53 -80 -74q-43 -25 -90 -25h-68zM496 1352h92l229 262h-112z" />
<glyph unicode="&#xfe;" horiz-adv-x="786" d="M-125 -434h121l133 624q14 -102 37 -141q23 -41 59 -59q35 -20 80 -21q141 0 254 168t166 424q37 176 29 309q-6 137 -60 209q-53 70 -135 70q-41 0 -90 -23q-47 -23 -88 -63q-20 -20 -45 -55t-53 -84l133 628h-119zM180 209q-25 131 23 346q29 141 76 254 q49 119 110 176q61 59 119 59q80 0 117 -106q39 -106 -21 -387q-49 -236 -135 -356q-82 -119 -170 -119q-96 0 -119 133z" />
<glyph unicode="&#xff;" horiz-adv-x="745" d="M-166 -434h88q74 0 129 33q49 29 109 106q29 37 70.5 114t97.5 193l534 1131h-114l-404 -850l-57 850h-129l75 -1104l-24 -49q-39 -86 -67.5 -140.5t-45.5 -78.5q-18 -27 -38.5 -45.5t-41.5 -28.5q-43 -25 -92 -25h-67zM360 1317h119l29 129h-119zM637 1317h119l28 129 h-118z" />
<glyph unicode="&#x152;" horiz-adv-x="1423" d="M45 170q68 -217 266 -217q76 0 154 41q74 37 168 168l-33 -162h594l23 115h-463l139 651h377l20 98h-377l123 574h430l25 114h-557l-37 -170q-37 123 -94 170q-53 45 -141 45q-199 0 -359 -215t-244 -606q-82 -389 -14 -606zM156 254q-33 195 34.5 522.5t186.5 519.5 q119 197 256 197q135 0 172 -197q37 -193 -33 -520q-68 -324 -188 -522q-121 -197 -258 -197t-170 197z" />
<glyph unicode="&#x153;" horiz-adv-x="1298" d="M59 571q-66 -307 4 -454q68 -147 201 -148q82 0 172 56q88 57 154 172q43 -227 229 -228q76 0 144 33q72 35 118 98q51 68 64 125l2 11h-111l-2 -13q-8 -39 -57 -98q-47 -53 -127 -53q-111 -4 -141 141q-35 145 14 367h508l12 59q43 205 29 315q-16 113 -70 168 q-53 53 -135 54q-78 0 -156 -52q-74 -49 -159 -172q-29 125 -90 172q-59 51 -140 52q-135 0 -266 -150q-66 -74 -115 -187.5t-82 -267.5zM151.5 369q4.5 90 28.5 202q23 113 57.5 203t77.5 158q88 137 187 137q94 0 125 -137q31 -133 -17 -361q-49 -227 -137 -360 q-88 -137 -184 -137t-127 137q-15 68 -10.5 158zM748 672q57 176 135 278q78 98 147 103q51 0 86 -43q41 -47 43 -140q4 -96 -12 -176l-6 -22h-393z" />
<glyph unicode="&#x178;" horiz-adv-x="794" d="M135 0h129l156 731l489 821h-123l-376 -624l-113 624h-150l144 -821zM358 1749h119l29 131h-119zM635 1749h119l28 131h-118z" />
<glyph unicode="&#x2c6;" horiz-adv-x="768" d="M195 1348h106l78 102l29 -100h108l-63 264h-78z" />
<glyph unicode="&#x2dc;" horiz-adv-x="770" d="M156 1315h77q20 98 68 98q18 0 47 -27l23 -28q37 -47 75 -47q35 0 68 26.5t55 71.5q10 20 22.5 54t22.5 81h-77q-25 -115 -62 -114q-18 0 -65 40l-21 29q-31 45 -70 45q-51 0 -94 -55q-44 -57 -69 -174z" />
<glyph unicode="&#x2000;" horiz-adv-x="960" />
<glyph unicode="&#x2001;" horiz-adv-x="1921" />
<glyph unicode="&#x2002;" horiz-adv-x="960" />
<glyph unicode="&#x2003;" horiz-adv-x="1921" />
<glyph unicode="&#x2004;" horiz-adv-x="638" />
<glyph unicode="&#x2005;" horiz-adv-x="479" />
<glyph unicode="&#x2006;" horiz-adv-x="319" />
<glyph unicode="&#x2007;" horiz-adv-x="319" />
<glyph unicode="&#x2008;" horiz-adv-x="239" />
<glyph unicode="&#x2009;" horiz-adv-x="382" />
<glyph unicode="&#x200a;" horiz-adv-x="106" />
<glyph unicode="&#x2010;" horiz-adv-x="493" d="M39 637h395l21 98h-396z" />
<glyph unicode="&#x2011;" horiz-adv-x="493" d="M39 637h395l21 98h-396z" />
<glyph unicode="&#x2012;" horiz-adv-x="493" d="M39 637h395l21 98h-396z" />
<glyph unicode="&#x2013;" horiz-adv-x="669" d="M29 555h592l20 100h-592z" />
<glyph unicode="&#x2014;" horiz-adv-x="1341" d="M29 555h1263l21 100h-1264z" />
<glyph unicode="&#x2018;" horiz-adv-x="395" d="M53 1036h166l43 211h-82q8 31 15.5 58.5t17.5 54.5q20 53 43 96q12 23 28.5 41.5t32.5 34.5l19 90q-31 -18 -58.5 -42t-52.5 -54q-23 -29 -43 -62.5t-36.5 -68.5t-31 -87.5t-30.5 -119.5z" />
<glyph unicode="&#x2019;" horiz-adv-x="395" d="M51 1032q63 37 115 101q49 66 82 137q16 37 32.5 91t30.5 126l35 158h-166l-45 -207h84q-12 -66 -35 -125q-10 -29 -21 -54.5t-24 -50.5q-14 -25 -31.5 -46t-35.5 -40z" />
<glyph unicode="&#x201a;" horiz-adv-x="395" d="M59 -354q33 18 59.5 40.5t51.5 51.5q47 59 80 125q29 63 57 196l31 146h-162l-43 -205h80q-12 -59 -31 -104q-10 -25 -20 -46.5t-23 -44.5q-29 -43 -61 -73z" />
<glyph unicode="&#x201c;" horiz-adv-x="641" d="M51 1006h164l45 211h-82q8 31 15.5 58.5t17.5 53.5q10 25 21.5 49.5t23.5 46.5q27 47 61 76l19 90q-31 -18 -59.5 -41.5t-53.5 -54.5q-49 -66 -78 -131q-16 -37 -30.5 -88t-30.5 -121zM297 1006h166l45 211h-82q8 31 14 59.5t16.5 53t21.5 49t23.5 47t29 41t34.5 34.5 l21 92q-70 -39 -113 -96q-51 -63 -80 -133q-33 -68 -63 -209z" />
<glyph unicode="&#x201d;" horiz-adv-x="641" d="M51 1001q61 35 115 101q45 59 82 137q33 70 63 217l35 158h-166l-45 -207h84q-12 -66 -35 -125q-10 -29 -21 -54.5t-24 -49.5q-16 -27 -32.5 -47.5t-34.5 -38.5zM299 1001q68 43 115 101q25 33 44 66.5t35.5 70.5t33 91t30.5 126l35 158h-162l-45 -207h80 q-6 -35 -14.5 -64.5t-18.5 -58.5t-21.5 -54.5t-25.5 -49.5q-29 -49 -66 -84z" />
<glyph unicode="&#x201e;" horiz-adv-x="641" d="M57 -354q63 37 111 92q47 59 80 125q33 72 59 196l31 146h-164l-43 -205h82q-12 -59 -31 -104q-10 -25 -20 -46.5t-23 -44.5q-29 -45 -63 -73zM305 -354q63 37 111 92q47 59 80 125q29 63 57 196l31 146h-162l-43 -205h80q-12 -59 -31 -104q-20 -49 -43 -91 q-12 -23 -28.5 -40t-32.5 -31z" />
<glyph unicode="&#x2022;" horiz-adv-x="768" d="M170 827q-12 -53 4 -104q8 -23 23.5 -42t35.5 -34q41 -29 99 -29q55 0 108 27q55 29 92 78t50 104q12 53 -4 105q-8 25 -23.5 44t-36.5 34q-23 16 -46 21t-50 5q-59 0 -111 -28q-53 -27 -92 -78q-37 -46 -49 -103z" />
<glyph unicode="&#x2026;" horiz-adv-x="1343" d="M119 0h168l45 209h-168zM565 0h168l45 209h-168zM1012 0h168l45 209h-168z" />
<glyph unicode="&#x202f;" horiz-adv-x="382" />
<glyph unicode="&#x2039;" horiz-adv-x="417" d="M45 481l119 -325h112l-96 401l264 404h-102l-264 -328z" />
<glyph unicode="&#x203a;" horiz-adv-x="417" d="M-29 158h111l254 315l37 168l-117 320h-111l93 -400z" />
<glyph unicode="&#x205f;" horiz-adv-x="479" />
<glyph unicode="&#x2122;" horiz-adv-x="987" d="M117 1485h159l-137 -654h82l137 654h160l14 67h-401zM436 836h74l90 424l16 -312h109l143 312l-90 -429h80l152 721h-80l-234 -505l-32 505h-76z" />
<glyph unicode="&#xe000;" horiz-adv-x="1145" d="M0 1145h1145v-1145h-1145v1145z" />
<glyph unicode="&#xfb01;" horiz-adv-x="815" d="M436 0h119l244 1143h-119zM743 1448h119l29 131h-119zM-16 0h118l224 1044h206l21 99h-205l19 90q37 172 88 221q49 47 106 47q16 0 35.5 -2t42.5 -6l23 106q-55 14 -97 15q-109 0 -192 -96q-86 -96 -135 -326l-11 -49h-102l-21 -99h103z" />
<glyph unicode="&#xfb02;" horiz-adv-x="815" d="M432 0h119l344 1614h-119zM-16 0h118l224 1044h206l21 99h-205l19 90q37 172 88 221q49 47 106 47q16 0 35.5 -2t42.5 -6l23 106q-55 14 -97 15q-109 0 -192 -96q-86 -96 -135 -326l-11 -49h-102l-21 -99h103z" />
<glyph unicode="&#xfb03;" horiz-adv-x="1325" d="M946 0h119l244 1143h-119zM1253 1448h119l29 131h-119zM494 0h118l224 1044h206l21 99h-205l19 90q37 172 88 221q49 47 106 47q16 0 35.5 -2t42.5 -6l23 106q-55 14 -97 15q-109 0 -192 -96q-86 -96 -135 -326l-11 -49h-102l-21 -99h103zM-16 0h118l224 1044h206l21 99 h-205l19 90q37 172 88 221q49 47 106 47q16 0 35.5 -2t42.5 -6l23 106q-55 14 -97 15q-109 0 -192 -96q-86 -96 -135 -326l-11 -49h-102l-21 -99h103z" />
<glyph unicode="&#xfb04;" horiz-adv-x="1325" d="M942 0h119l344 1614h-119zM494 0h118l224 1044h206l21 99h-205l19 90q37 172 88 221q49 47 106 47q16 0 35.5 -2t42.5 -6l23 106q-55 14 -97 15q-109 0 -192 -96q-86 -96 -135 -326l-11 -49h-102l-21 -99h103zM-16 0h118l224 1044h206l21 99h-205l19 90q37 172 88 221 q49 47 106 47q16 0 35.5 -2t42.5 -6l23 106q-55 14 -97 15q-109 0 -192 -96q-86 -96 -135 -326l-11 -49h-102l-21 -99h103z" />
</font>
</defs>
</svg>
